<?xml version="1.0" encoding="UTF-8" standalone="no"?>
<!-- Created with Inkscape (http://www.inkscape.org/) -->

<svg
   xmlns:dc="http://purl.org/dc/elements/1.1/"
   xmlns:cc="http://creativecommons.org/ns#"
   xmlns:rdf="http://www.w3.org/1999/02/22-rdf-syntax-ns#"
   xmlns:svg="http://www.w3.org/2000/svg"
   xmlns="http://www.w3.org/2000/svg"
   xmlns:sodipodi="http://sodipodi.sourceforge.net/DTD/sodipodi-0.dtd"
   xmlns:inkscape="http://www.inkscape.org/namespaces/inkscape"
   version="1.1"
   id="svg2"
   xml:space="preserve"
   width="740.15997"
   height="328"
   viewBox="0 0 740.15997 328"
   sodipodi:docname="Favor Exchange - Architecture Diagram 2.svg"
   inkscape:version="0.92.4 (5da689c313, 2019-01-14)"><metadata
     id="metadata8"><rdf:RDF><cc:Work
         rdf:about=""><dc:format>image/svg+xml</dc:format><dc:type
           rdf:resource="http://purl.org/dc/dcmitype/StillImage" /><dc:title></dc:title></cc:Work></rdf:RDF></metadata><defs
     id="defs6"><clipPath
       clipPathUnits="userSpaceOnUse"
       id="clipPath18"><path
         d="M 0,0 H 2312.4998 V 1023.1241 H 0 Z"
         id="path16"
         inkscape:connector-curvature="0"
         style="clip-rule:evenodd" /></clipPath><clipPath
       clipPathUnits="userSpaceOnUse"
       id="clipPath30"><path
         d="M 0,0 H 2312.4998 V 1023.1241 H 0 Z"
         id="path28"
         inkscape:connector-curvature="0"
         style="clip-rule:evenodd" /></clipPath></defs><sodipodi:namedview
     pagecolor="#ffffff"
     bordercolor="#666666"
     borderopacity="1"
     objecttolerance="10"
     gridtolerance="10"
     guidetolerance="10"
     inkscape:pageopacity="0"
     inkscape:pageshadow="2"
     inkscape:window-width="680"
     inkscape:window-height="480"
     id="namedview4"
     showgrid="false"
     inkscape:zoom="0.71606142"
     inkscape:cx="370.07999"
     inkscape:cy="164"
     inkscape:window-x="0"
     inkscape:window-y="0"
     inkscape:window-maximized="0"
     inkscape:current-layer="g10" /><g
     id="g10"
     inkscape:groupmode="layer"
     inkscape:label="Favor Exchange - Architecture Diagram 2"
     transform="matrix(0.31999998,0,0,0.31999998,0,8.2e-6)"><g
       id="g12"><g
         id="g14"
         clip-path="url(#clipPath18)"><g
           id="g20"
           transform="scale(2.991591)"><path
             d="M 0,0 H 773 V 342 H 0 Z"
             style="fill:#ffffff;fill-opacity:1;fill-rule:nonzero;stroke:none"
             id="path22"
             inkscape:connector-curvature="0" /></g></g></g><g
       id="g24"><g
         id="g26"
         clip-path="url(#clipPath30)"><g
           id="g32"
           transform="matrix(2.991591,0,0,2.991591,1.4957955,1.4957955)"><path
             d="m 284.5,1 h 373 c 1.42468,0 2.84595,0.069821 4.26373,0.2094644 1.41779,0.1396429 2.82538,0.3484348 4.22266,0.6263757 1.39728,0.2779411 2.77765,0.6236929 4.14099,1.0372549 1.36334,0.4135626 2.70306,0.8929439 4.01929,1.4381447 1.31622,0.5452013 2.6026,1.1535964 3.85907,1.8251848 1.25641,0.6715889 2.47693,1.4031377 3.6615,2.1946464 1.18463,0.7915087 2.32757,1.6391668 3.42889,2.5429731 1.10132,0.903807 2.15564,1.859411 3.16296,2.86681 1.00745,1.007402 1.96308,2.061748 2.86683,3.163039 0.9038,1.101293 1.75146,2.244226 2.54296,3.428802 0.79157,1.184578 1.52308,2.405094 2.19465,3.661551 0.67163,1.256452 1.28002,2.542793 1.82519,3.859022 0.54529,1.316232 1.02466,2.656015 1.43817,4.019348 0.41358,1.363334 0.75934,2.743652 1.03729,4.140953 0.27796,1.397304 0.48676,2.804867 0.62641,4.222687 0.13965,1.41782 0.20947,2.839065 0.20941,4.263744 v 203 c 6e-5,1.42468 -0.0698,2.84593 -0.20941,4.26376 -0.13965,1.4178 -0.34845,2.82537 -0.62641,4.22266 -0.27795,1.39731 -0.62371,2.77765 -1.03723,4.14099 -0.41351,1.36331 -0.89294,2.70306 -1.43823,4.01929 -0.54517,1.31625 -1.15356,2.60257 -1.82519,3.85901 -0.67157,1.25647 -1.40308,2.47699 -2.19465,3.66156 -0.7915,1.1846 -1.63916,2.32754 -2.54296,3.42883 -0.90375,1.10129 -1.85938,2.15564 -2.86683,3.16302 -1.00732,1.00742 -2.06164,1.96302 -3.16296,2.8668 -1.10126,0.90383 -2.2442,1.75149 -3.42883,2.54296 -1.18457,0.79151 -2.40509,1.52305 -3.6615,2.19465 -1.25653,0.6716 -2.54291,1.27999 -3.85913,1.82519 -1.31623,0.5452 -2.65601,1.0246 -4.01935,1.43817 -1.36334,0.41358 -2.74365,0.75934 -4.14093,1.03726 -1.39728,0.27799 -2.80487,0.48679 -4.22266,0.62641 C 660.34595,290.93018 658.92468,291 657.5,291 h -373 c -1.42465,0 -2.84592,-0.0698 -4.26373,-0.20944 -1.41782,-0.13962 -2.82538,-0.34842 -4.22272,-0.62641 -1.39731,-0.27792 -2.77762,-0.62368 -4.14093,-1.03726 -1.36337,-0.41357 -2.70316,-0.89297 -4.01941,-1.43817 -1.31619,-0.5452 -2.60254,-1.15359 -3.85901,-1.82519 -1.25644,-0.6716 -2.47696,-1.40314 -3.66156,-2.19465 -1.18454,-0.79147 -2.32748,-1.63913 -3.42877,-2.54293 -1.1013,-0.90381 -2.15564,-1.85941 -3.16304,-2.86683 -1.00739,-1.00738 -1.96298,-2.06173 -2.86679,-3.16302 -0.90381,-1.10129 -1.75148,-2.24423 -2.543,-3.42883 -0.7915,-1.18457 -1.52306,-2.40509 -2.19464,-3.66153 -0.67159,-1.25644 -1.27999,-2.54279 -1.8252,-3.85904 -0.54518,-1.31623 -1.02456,-2.65598 -1.43812,-4.01929 -0.41356,-1.36334 -0.75933,-2.74368 -1.03726,-4.14099 -0.27791,-1.39729 -0.4867,-2.80486 -0.62633,-4.22267 C 241.06985,250.34593 241.00002,248.92468 241,247.5 v -203 c 2e-5,-1.424679 0.0699,-2.845924 0.20949,-4.263744 0.13963,-1.41782 0.34842,-2.825383 0.62634,-4.222687 0.27795,-1.397301 0.6237,-2.777619 1.03726,-4.140953 0.41356,-1.363333 0.89295,-2.703116 1.43813,-4.019348 0.54519,-1.316229 1.15359,-2.60257 1.82519,-3.859024 0.67159,-1.256455 1.40313,-2.476971 2.19463,-3.661551 0.79152,-1.184574 1.63919,-2.327507 2.543,-3.4288 0.90381,-1.101291 1.8594,-2.155637 2.86679,-3.163039 1.0074,-1.007399 2.06175,-1.963003 3.16307,-2.86681 1.10129,-0.9038063 2.2442,-1.7514644 3.42874,-2.5429731 1.1846,-0.7915087 2.40512,-1.5230575 3.66156,-2.1946459 1.25647,-0.6715889 2.54282,-1.279984 3.85901,-1.8251853 1.31625,-0.5452008 2.65604,-1.0245821 4.01941,-1.4381447 1.36331,-0.413562 2.74362,-0.7593138 4.14093,-1.0372549 1.39734,-0.2779409 2.8049,-0.4867328 4.22272,-0.6263757 C 281.65408,1.0698215 283.07535,1 284.5,1 Z"
             style="fill:#ffffff;fill-opacity:1;fill-rule:nonzero;stroke:none"
             id="path34"
             inkscape:connector-curvature="0" /><path
             d="m 290.5,0.5 h 3 v 1 h -3 z m 6,0 h 3 v 1 h -3 z m 6,0 h 3 v 1 h -3 z m 6,0 h 3 v 1 h -3 z m 6,0 h 3 v 1 h -3 z m 6,0 h 3 v 1 h -3 z m 6,0 h 3 v 1 h -3 z m 6,0 h 3 v 1 h -3 z m 6,0 h 3 v 1 h -3 z m 6,0 h 3 v 1 h -3 z m 6,0 h 3 v 1 h -3 z m 6,0 h 3 v 1 h -3 z m 6,0 h 3 v 1 h -3 z m 6,0 h 3 v 1 h -3 z m 6,0 h 3 v 1 h -3 z m 6,0 h 3 v 1 h -3 z m 6,0 h 3 v 1 h -3 z m 6,0 h 3 v 1 h -3 z m 6,0 h 3 v 1 h -3 z m 6,0 h 3 v 1 h -3 z m 6,0 h 3 v 1 h -3 z m 6,0 h 3 v 1 h -3 z m 6,0 h 3 v 1 h -3 z m 6,0 h 3 v 1 h -3 z m 6,0 h 3 v 1 h -3 z m 6,0 h 3 v 1 h -3 z m 6,0 h 3 v 1 h -3 z m 6,0 h 3 v 1 h -3 z m 6,0 h 3 v 1 h -3 z m 6,0 h 3 v 1 h -3 z m 6,0 h 3 v 1 h -3 z m 6,0 h 3 v 1 h -3 z m 6,0 h 3 v 1 h -3 z m 6,0 h 3 v 1 h -3 z m 6,0 h 3 v 1 h -3 z m 6,0 h 3 v 1 h -3 z m 6,0 h 3 v 1 h -3 z m 6,0 h 3 v 1 h -3 z m 6,0 h 3 v 1 h -3 z m 6,0 h 3 v 1 h -3 z m 6,0 h 3 v 1 h -3 z m 6,0 h 3 v 1 h -3 z m 6,0 h 3 v 1 h -3 z m 6,0 h 3 v 1 h -3 z m 6,0 h 3 v 1 h -3 z m 6,0 h 3 v 1 h -3 z m 6,0 h 3 v 1 h -3 z m 6,0 h 3 v 1 h -3 z m 6,0 h 3 v 1 h -3 z m 6,0 h 3 v 1 h -3 z m 6,0 h 3 v 1 h -3 z m 6,0 h 3 v 1 h -3 z m 6,0 h 3 v 1 h -3 z m 6,0 h 3 v 1 h -3 z m 6,0 h 3 v 1 h -3 z m 6,0 h 3 v 1 h -3 z m 6,0 h 3 v 1 h -3 z m 6,0 h 3 v 1 h -3 z m 6,0 h 3 v 1 h -3 z m 6,0 h 3 v 1 h -3 z m 6,0 h 3 v 1 h -3 z m 6,0 h 1 c 0.65839,0 1.31653,0.0147722 1.97437,0.0443165 l -0.0449,0.9989929 C 658.78656,1.5144364 658.14343,1.4999999 657.5,1.5 h -1 z m 5.99188,0.28409249 c 1.02722,0.11727982 2.04865,0.27052051 3.06427,0.45972211 l -0.1831,0.9830927 C 664.38037,2.0419991 663.3822,1.8922422 662.37848,1.7776368 Z m 5.9834,1.10671301 c 0.98395,0.2534468 1.95795,0.5406363 2.92206,0.8615682 l -0.31592,0.9488068 c -0.94238,-0.31372 -1.89423,-0.5943816 -2.85553,-0.8419846 z m 5.80023,1.932646 c 0.92963,0.3833518 1.84497,0.7980824 2.74604,1.2441917 l -0.44373,0.896183 c -0.88092,-0.43606 -1.77539,-0.8413601 -2.68353,-1.2159 z m 5.42993,2.6907921 c 0.88092,0.5150027 1.74262,1.0597463 2.58503,1.6342301 l -0.56348,0.8261662 C 680.90344,8.4130068 680.0614,7.8806467 679.20081,7.3775582 Z m 5.02973,3.4278893 c 0.79748,0.6284861 1.57233,1.2838451 2.32452,1.9660781 l -0.67175,0.740738 c -0.7348,-0.666461 -1.49207,-1.306934 -2.27179,-1.921418 z m 4.51105,4.0919101 c 0.7044,0.734046 1.38201,1.490898 2.03271,2.270555 l -0.7677,0.640774 c -0.63599,-0.761992 -1.29816,-1.501623 -1.98645,-2.218892 z m 3.89782,4.668657 c 0.59491,0.822019 1.16053,1.663286 1.6969,2.523796 l -0.84863,0.528949 c -0.52411,-0.840976 -1.07684,-1.66312 -1.65833,-2.46643 z m 3.22467,5.176271 c 0.47382,0.893065 0.91608,1.800875 1.32679,2.723435 l -0.91358,0.406734 c -0.40143,-0.901358 -0.83362,-1.788519 -1.29663,-2.661488 z m 2.46625,5.540472 c 0.35034,0.960192 0.66712,1.932463 0.95032,2.916815 l -0.96106,0.276459 c -0.27686,-0.962149 -0.58643,-1.912333 -0.92871,-2.850554 z m 1.68372,5.839754 c 0.21386,0.995663 0.393,1.998009 0.53741,3.007031 l -0.98987,0.14167 c -0.14117,-0.986088 -0.31622,-1.96566 -0.5252,-2.938717 z m 0.86523,6.04736 c 0.0722,0.991008 0.11072,1.983902 0.11554,2.978679 l -1,0.0048 c -0.005,-0.97271 -0.0424,-1.943016 -0.11285,-2.910915 l 0.99731,-0.07261 z M 701.5,47.280731 v 3 h -1 v -3 z m 0,6 v 3 h -1 v -3 z m 0,6 v 3 h -1 v -3 z m 0,6 v 3 h -1 v -3 z m 0,6.000008 v 2.999992 h -1 v -2.999992 z m 0,5.999992 v 3 h -1 v -3 z m 0,6.000008 v 3 h -1 v -3 z m 0,6 v 3 h -1 v -3 z m 0,6 v 3 h -1 v -3 z m 0,6.000011 v 2.99999 h -1 v -2.99999 z m 0,5.99999 v 3 h -1 v -3 z m 0,6 v 3.00001 h -1 v -3.00001 z m 0,6.00001 v 2.99999 h -1 v -2.99999 z m 0,6 v 3 h -1 v -3 z m 0,5.99998 v 3.00002 h -1 v -3.00002 z m 0,6.00002 v 3 h -1 v -3 z m 0,6 v 3.00001 h -1 v -3.00001 z m 0,6 v 3 h -1 v -3 z m 0,6 v 3 h -1 v -3 z m 0,6.00001 v 3 h -1 v -3 z m 0,5.99999 v 3 h -1 v -3 z m 0,6 v 3.00001 h -1 v -3.00001 z m 0,6.00001 v 2.99999 h -1 v -2.99999 z m 0,5.99999 v 3 h -1 v -3 z m 0,6.00001 v 3 h -1 v -3 z m 0,6 v 2.99999 h -1 v -2.99999 z m 0,5.99999 v 3 h -1 v -3 z m 0,6.00001 v 3 h -1 v -3 z m 0,6 v 3 h -1 v -3 z m 0,5.99999 v 3.00001 h -1 v -3.00001 z m 0,6.00001 v 3 h -1 v -3 z m 0,6 v 3 h -1 v -3 z m 0,6 v 3 h -1 v -3 z m 0,6 V 247.5 c 6e-5,0.25587 -0.002,0.51144 -0.007,0.76672 l -0.99988,-0.0174 c 0.004,-0.25054 0.006,-0.50032 0.006,-0.74933 v -2.21924 h 1 z m -0.16077,5.97762 c -0.0877,1.02163 -0.21075,2.03821 -0.36914,3.04969 l -0.98791,-0.15478 c 0.15484,-0.98827 0.27508,-1.98169 0.36072,-2.9803 l 0.99633,0.0854 z m -0.94152,6.02903 c -0.22443,0.98337 -0.4823,1.95783 -0.77363,2.92341 l -0.95739,-0.28882 c 0.28454,-0.94333 0.53656,-1.89572 0.75604,-2.85712 z m -1.76514,5.83655 c -0.35761,0.94193 -0.74756,1.87122 -1.16998,2.78781 l -0.90821,-0.41845 c 0.41278,-0.89579 0.79395,-1.8039 1.14337,-2.7244 z m -2.53473,5.49958 c -0.49139,0.89797 -1.013,1.77691 -1.56476,2.63681 l -0.84167,-0.53998 c 0.53936,-0.84064 1.04913,-1.69959 1.52923,-2.57688 z m -3.28955,5.1315 c -0.60492,0.81362 -1.23743,1.60549 -1.89746,2.37564 l -0.75928,-0.6507 c 0.64471,-0.75223 1.26282,-1.52612 1.85425,-2.32162 z m -3.96002,4.62033 c -0.71338,0.72436 -1.4513,1.42337 -2.21375,2.09701 l -0.66211,-0.74939 c 0.74494,-0.65823 1.46607,-1.34131 2.16333,-2.04928 z m -4.5622,4.0317 c -0.80133,0.61493 -1.62292,1.20166 -2.4649,1.7602 l -0.55286,-0.83332 c 0.82318,-0.54608 1.62616,-1.11947 2.409,-1.72021 z m -5.07733,3.36472 c -0.88336,0.50101 -1.78247,0.97067 -2.6972,1.40897 l -0.43213,-0.90186 c 0.89434,-0.42844 1.77295,-0.88742 2.63592,-1.37692 z m -5.45239,2.61502 c -0.95673,0.38034 -1.92511,0.72659 -2.90528,1.0387 l -0.30346,-0.95288 c 0.95801,-0.30503 1.90442,-0.64341 2.83923,-1.01508 z m -5.82843,1.85962 c -0.97516,0.23788 -1.95703,0.44214 -2.94574,0.6127 l -0.17005,-0.98541 c 0.96631,-0.16675 1.92591,-0.36633 2.87885,-0.59879 z m -6.00525,1.03073 c -1.00012,0.10104 -2.00214,0.16773 -3.00611,0.20004 l -0.0322,-0.99951 c 0.98138,-0.0315 1.96063,-0.0967 2.93774,-0.19546 l 0.10059,0.99493 z M 655.93842,291.5 h -3 v -1 h 3 z m -6,0 h -3 v -1 h 3 z m -6,0 h -3 v -1 h 3 z m -6,0 h -3 v -1 h 3 z m -6,0 h -3 v -1 h 3 z m -6,0 h -3 v -1 h 3 z m -6,0 h -3 v -1 h 3 z m -6,0 h -3 v -1 h 3 z m -6,0 h -3 v -1 h 3 z m -6,0 h -3 v -1 h 3 z m -6,0 h -3 v -1 h 3 z m -6,0 h -3 v -1 h 3 z m -6,0 h -3 v -1 h 3 z m -6,0 h -3 v -1 h 3 z m -6,0 h -3 v -1 h 3 z m -6,0 h -3 v -1 h 3 z m -6,0 h -3 v -1 h 3 z m -6,0 h -3 v -1 h 3 z m -6,0 h -3 v -1 h 3 z m -6,0 h -3 v -1 h 3 z m -6,0 h -3 v -1 h 3 z m -6,0 h -2.99994 v -1 h 2.99994 z m -5.99994,0 h -3.00006 v -1 h 3.00006 z m -6.00006,0 h -2.99994 v -1 h 2.99994 z m -5.99997,0 h -3.00003 v -1 h 3.00003 z m -6.00003,0 h -2.99997 v -1 h 2.99997 z m -5.99997,0 h -3 v -1 h 3 z m -6.00003,0 h -2.99997 v -1 h 2.99997 z m -5.99997,0 h -3 v -1 h 3 z m -6,0 h -3 v -1 h 3 z m -6,0 h -3 v -1 h 3 z m -6,0 h -3 v -1 h 3 z m -6.00003,0 h -2.99997 v -1 h 2.99997 z m -5.99994,0 h -3.00003 v -1 h 3.00003 z m -6.00003,0 h -2.99997 v -1 h 2.99997 z m -6,0 h -3 v -1 h 3 z m -5.99997,0 h -3.00003 v -1 h 3.00003 z m -6,0 h -3.00003 v -1 h 3.00003 z m -6.00003,0 h -2.99997 v -1 h 2.99997 z m -6,0 h -2.99997 v -1 h 2.99997 z m -5.99997,0 h -3.00003 v -1 h 3.00003 z m -6,0 h -3.00003 v -1 h 3.00003 z m -6,0 h -3 v -1 h 3 z m -6.00003,0 h -3 v -1 h 3 z m -5.99997,0 h -3.00003 v -1 h 3.00003 z m -6,0 h -3.00003 v -1 h 3.00003 z m -6.00003,0 h -2.99997 v -1 h 2.99997 z m -6,0 h -2.99997 v -1 h 2.99997 z m -5.99997,0 h -3.00003 v -1 h 3.00003 z m -6,0 h -3.00003 v -1 h 3.00003 z m -6,0 h -3 v -1 h 3 z m -6.00003,0 h -2.99997 v -1 h 2.99997 z m -5.99997,0 h -3 v -1 h 3 z m -6,0 h -3.00003 v -1 h 3.00003 z m -6,0 h -3 v -1 h 3 z m -6,0 h -3 v -1 h 3 z m -6,0 h -3 v -1 h 3 z m -6,0 h -3 v -1 h 3 z m -6,0 h -3 v -1 h 3 z m -6,0 h -3 v -1 h 3 z m -6,0 h -3 v -1 h 3 z m -6,0 h -3 v -1 h 3 z m -5.98935,-0.003 c -0.9975,-0.0125 -1.99308,-0.0588 -2.9867,-0.13901 l 0.0805,-0.99676 c 0.97088,0.0784 1.94381,0.12366 2.91876,0.13583 l -0.0125,0.99994 z m -6.03281,-0.49188 c -1.00339,-0.15189 -2.00012,-0.33817 -2.9902,-0.5589 l 0.21759,-0.97601 c 0.96707,0.2156 1.94116,0.39764 2.92227,0.54614 z m -5.91357,-1.31677 c -0.98337,-0.29135 -1.9549,-0.61649 -2.91465,-0.97538 l 0.35029,-0.93664 c 0.93795,0.35074 1.88745,0.66849 2.84841,0.95322 z m -5.7139,-2.13352 c -0.9205,-0.41849 -1.82599,-0.86847 -2.71646,-1.34991 l 0.47558,-0.87964 c 0.87,0.47034 1.75492,0.91006 2.65476,1.31921 z m -5.35947,-2.9003 c -0.85495,-0.54239 -1.69031,-1.11367 -2.5061,-1.71392 l 0.59265,-0.80549 c 0.79733,0.58661 1.61371,1.14493 2.44916,1.67499 z m -4.89056,-3.59872 c -0.77498,-0.65735 -1.5266,-1.341 -2.25484,-2.05097 l 0.69809,-0.716 c 0.71175,0.69385 1.44627,1.36197 2.2036,2.00433 z m -4.36318,-4.25412 c -0.67625,-0.7576 -1.32527,-1.53732 -1.94703,-2.3392 l 0.79025,-0.6128 c 0.60765,0.78366 1.24191,1.54566 1.90279,2.28604 z m -3.72032,-4.79642 c -0.56904,-0.84866 -1.10779,-1.71591 -1.61619,-2.60168 l 0.86728,-0.49781 c 0.49672,0.86545 1.0232,1.71296 1.57948,2.54255 z m -3.03985,-5.29382 c -0.4383,-0.90305 -0.84529,-1.82025 -1.221,-2.75165 l 0.9274,-0.37408 c 0.3672,0.91027 0.76494,1.80664 1.19322,2.68908 z m -2.27239,-5.64642 c -0.31261,-0.96463 -0.59155,-1.93891 -0.83681,-2.9228 l 0.97031,-0.24188 c 0.23969,0.96155 0.51228,1.91367 0.8178,2.85639 z m -1.46275,-5.85703 c -0.18073,-1.01588 -0.32555,-2.03677 -0.43448,-3.06267 l 0.99441,-0.10556 c 0.10643,1.00267 0.24796,2.00037 0.4246,2.99306 z m -0.64995,-6.07333 c -0.0203,-0.54496 -0.0304,-1.08969 -0.0304,-1.63424 v -1.34214 h 1 v 1.34218 c -2e-5,0.53233 0.01,1.06466 0.0297,1.59703 l -0.9993,0.0372 z m -0.0304,-5.97638 v -3 h 1 v 3 z m 0,-6 v -3 h 1 v 3 z m 0,-6 v -3 h 1 v 3 z m 0,-6 v -3 h 1 v 3 z m 0,-6 v -3 h 1 v 3 z m 0,-6 v -3 h 1 v 3 z m 0,-6 v -3 h 1 v 3 z m 0,-6 v -3 h 1 v 3 z m 0,-6 v -3 h 1 v 3 z m 0,-6 v -3 h 1 v 3 z m 0,-6 v -3 h 1 v 3 z m 0,-6 v -3 h 1 v 3 z m 0,-6 v -3 h 1 v 3 z m 0,-6 v -3 h 1 v 3 z m 0,-6 v -3 h 1 v 3 z m 0,-6 v -3 h 1 v 3 z m 0,-6 v -3 h 1 v 3 z m 0,-6 v -3 h 1 v 3 z m 0,-6 v -3 h 1 v 3 z m 0,-6 v -3 h 1 v 3 z m 0,-6 v -3 h 1 v 3 z m 0,-6 v -3 h 1 v 3 z m 0,-6 v -3 h 1 v 3 z m 0,-6 v -3 h 1 v 3 z m 0,-6.000003 v -3 h 1 v 3 z m 0,-6 v -3 h 1 v 3 z m 0,-6 v -3 h 1 v 3 z m 0,-6 v -3 h 1 v 3 z m 0,-6 v -3 h 1 v 3 z m 0,-6 v -3 h 1 v 3 z m 0,-6 v -3 h 1 v 3 z m 0,-6 v -3 h 1 v 3 z m 0,-6 v -3 h 1 v 3 z m 0,-6 V 44.50045 c -2e-5,-0.772388 0.0203,-1.544167 0.0609,-2.315331 l 0.99863,0.05261 C 241.51985,42.99107 241.5,43.745308 241.5,44.5 v 0.657837 h -1 z m 0.3252,-5.997524 c 0.12493,-1.021916 0.28553,-2.038124 0.48179,-3.04863 l 0.98166,0.190643 c -0.19176,0.987484 -0.34871,1.980602 -0.47084,2.979347 z m 1.1529,-5.96912 c 0.26177,-0.984131 0.55724,-1.957774 0.8864,-2.920929 l 0.94626,0.323387 c -0.32165,0.941217 -0.61041,1.892742 -0.86626,2.854576 z m 1.97693,-5.782305 c 0.39109,-0.927771 0.81356,-1.841107 1.26741,-2.740008 l 0.89267,0.450707 c -0.44354,0.878424 -0.85641,1.771004 -1.2386,2.67774 z m 2.73688,-5.415497 c 0.52115,-0.875479 1.07184,-1.731522 1.65208,-2.568129 l 0.82172,0.569905 c -0.56709,0.817652 -1.10527,1.654224 -1.61452,2.509714 z m 3.46594,-5.000074 c 0.63497,-0.79274 1.29663,-1.562636 1.98502,-2.309688 l 0.73538,0.677649 c -0.67264,0.729983 -1.31926,1.482379 -1.93988,2.257187 z m 4.12818,-4.479489 c 0.73892,-0.697975 1.50091,-1.369384 2.28599,-2.014228 l 0.63471,0.772741 c -0.76712,0.630059 -1.51178,1.286204 -2.234,1.968435 z m 4.69749,-3.8594663 c 0.82779,-0.58924 1.6749,-1.1490855 2.54126,-1.6795373 l 0.52216,0.8528376 c -0.84659,0.5183654 -1.67444,1.0654931 -2.48352,1.6413855 z m 5.20294,-3.1846132 c 0.8949,-0.4657707 1.80493,-0.9003201 2.73014,-1.303648 l 0.39959,0.9166784 c -0.90402,0.3941083 -1.79339,0.8187828 -2.66806,1.2740231 z m 5.5647,-2.4241982 c 0.96219,-0.3423287 1.93509,-0.650778 2.9187,-0.9253478 l 0.26886,0.9631772 c -0.96121,0.2683182 -1.91202,0.5697575 -2.85236,0.9043179 z m 5.84091,-1.634397 c 1.00189,-0.2071215 2.00974,-0.3790882 3.02353,-0.5159 l 0.13373,0.9910164 c -0.99072,0.1336993 -1.97565,0.3017579 -2.9548,0.504176 z m 6.05786,-0.81875215 C 282.59897,0.5308004 283.54898,0.5 284.5,0.5 h 3 v 1 h -3 c -0.92938,0 -1.85782,0.0301 -2.78531,0.090301 l -0.0648,-0.99790005 z"
             style="fill:#000000;fill-opacity:1;fill-rule:nonzero;stroke:none"
             id="path36"
             inkscape:connector-curvature="0" /><path
             d="m 34,1 h 154 c 1.0808,0 2.159,0.052968 3.23457,0.1589041 1.07558,0.105936 2.14337,0.2643299 3.20339,0.4751817 1.06003,0.2108518 2.10716,0.4731461 3.14142,0.7868827 1.03425,0.3137372 2.05064,0.6774059 3.04916,1.0910065 0.99854,0.4136007 1.97438,0.8751419 2.92755,1.3846229 0.95317,0.5094809 1.87908,1.0644493 2.77771,1.6649041 0.89865,0.6004557 1.76572,1.2435064 2.60118,1.9291529 0.83547,0.6856471 1.6353,1.4105874 2.39954,2.1748211 0.76425,0.764234 1.4892,1.564083 2.17483,2.399547 0.68564,0.835461 1.32868,1.702514 1.92913,2.601159 0.60046,0.898643 1.15544,1.824552 1.66493,2.777725 0.50947,0.953172 0.97101,1.929018 1.3846,2.927538 0.4136,0.99852 0.77728,2.014906 1.09102,3.049158 0.31373,1.034252 0.57601,2.08139 0.78686,3.141413 0.21086,1.060024 0.36926,2.12783 0.4752,3.203418 C 220.94704,31.841021 221,32.919209 221,34 v 224 c 0,1.08078 -0.053,2.15897 -0.15891,3.23456 -0.10594,1.07559 -0.26432,2.1434 -0.47518,3.2034 -0.21087,1.06003 -0.47315,2.10718 -0.78687,3.14145 -0.31375,1.03424 -0.67743,2.05063 -1.09103,3.04913 -0.41359,0.99854 -0.87514,1.9744 -1.38462,2.92755 -0.50947,0.95319 -1.06445,1.87909 -1.6649,2.77771 -0.60045,0.89865 -1.2435,1.76572 -1.92914,2.6012 -0.68563,0.83545 -1.41058,1.63528 -2.17483,2.3995 -0.76424,0.76422 -1.56407,1.48917 -2.39954,2.17484 -0.83548,0.68564 -1.70254,1.3287 -2.60119,1.92914 -0.89864,0.60046 -1.82454,1.15542 -2.77771,1.66488 -0.95316,0.50949 -1.929,0.97101 -2.92754,1.38462 -0.99852,0.4136 -2.01491,0.77725 -3.04916,1.091 -1.03426,0.31375 -2.08139,0.57605 -3.14142,0.7869 -1.06002,0.21087 -2.12783,0.36929 -3.2034,0.47521 C 190.15898,290.94702 189.0808,291 188,291 H 34 c -1.080791,0 -2.158979,-0.053 -3.234566,-0.15891 -1.075588,-0.10592 -2.143394,-0.26434 -3.203418,-0.47521 -1.060023,-0.21085 -2.107161,-0.47315 -3.141413,-0.7869 -1.034252,-0.31375 -2.050638,-0.6774 -3.04916,-1.091 -0.99852,-0.41361 -1.974365,-0.87513 -2.927538,-1.38462 -0.953173,-0.50946 -1.87908,-1.06442 -2.777725,-1.66488 -0.898643,-0.60044 -1.765696,-1.2435 -2.601159,-1.92914 -0.835462,-0.68567 -1.635311,-1.41062 -2.399545,-2.17484 -0.7642337,-0.76422 -1.489174,-1.56405 -2.1748211,-2.39953 -0.6856465,-0.83545 -1.3286972,-1.70252 -1.9291529,-2.60117 -0.6004548,-0.89862 -1.1554232,-1.82452 -1.6649046,-2.77771 -0.509481,-0.95315 -0.9710217,-1.92901 -1.3846224,-2.92755 -0.4136006,-0.9985 -0.7772693,-2.01489 -1.0910065,-3.04913 -0.3137369,-1.03427 -0.5760311,-2.08142 -0.7868828,-3.14145 -0.2108518,-1.06 -0.3692457,-2.12781 -0.4751816,-3.2034 C 1.052968,260.15897 1,259.08078 1,258 V 34 C 1,32.919209 1.052968,31.841021 1.1589041,30.765434 1.26484,29.689846 1.4232337,28.62204 1.6340855,27.562016 1.8449373,26.501993 2.1072316,25.454855 2.4209685,24.420603 2.7347057,23.386351 3.0983744,22.369965 3.511975,21.371443 3.9255757,20.372923 4.3871169,19.397078 4.8965979,18.443905 5.4060788,17.490732 5.9610472,16.564825 6.561502,15.66618 7.1619577,14.767537 7.8050084,13.900484 8.4906549,13.065021 9.176302,12.229559 9.9012423,11.42971 10.665476,10.665476 11.42971,9.9012423 12.229559,9.176302 13.065023,8.4906549 13.900484,7.8050084 14.767537,7.1619577 15.666182,6.561502 16.564825,5.9610472 17.490734,5.4060788 18.443907,4.8965974 19.397079,4.3871164 20.372925,3.9255757 21.371445,3.511975 22.369965,3.0983744 23.386351,2.7347057 24.420603,2.4209685 25.454855,2.1072316 26.501993,1.8449374 27.562016,1.6340857 28.62204,1.4232339 29.689846,1.26484 30.765434,1.1589041 31.841021,1.052968 32.919209,1 34,1 Z"
             style="fill:#ffffff;fill-opacity:1;fill-rule:nonzero;stroke:none"
             id="path38"
             inkscape:connector-curvature="0" /><path
             d="m 40,0.5 h 3 v 1 h -3 z m 6,0 h 3 v 1 h -3 z m 6,0 h 3 v 1 h -3 z m 6,0 h 3 v 1 h -3 z m 6,0 h 3 v 1 h -3 z m 6,0 h 3 v 1 h -3 z m 6,0 h 3 v 1 h -3 z m 6,0 h 3 v 1 h -3 z m 6,0 h 3 v 1 h -3 z m 6,0 h 3 v 1 h -3 z m 6,0 h 3 v 1 h -3 z m 6,0 h 3 v 1 h -3 z m 6,0 h 3 v 1 h -3 z m 6,0 h 3 v 1 h -3 z m 5.99999,0 H 127 v 1 h -3.00001 z M 130,0.5 h 3 v 1 h -3 z m 6,0 h 3 v 1 h -3 z m 6,0 h 3 v 1 h -3 z m 6,0 h 3 v 1 h -3 z m 6,0 h 3 v 1 h -3 z m 6,0 h 3 v 1 h -3 z m 6,0 h 3 v 1 h -3 z m 6,0 h 3 v 1 h -3 z m 6,0 h 3 v 1 h -3 z m 6,0 h 3 v 1 h -3 z m 5.98657,0.0589548 c 1.02123,0.0606652 2.03751,0.16788167 3.04886,0.32164944 L 192.8851,1.8692424 C 191.90395,1.720064 190.918,1.6160483 189.92728,1.5571951 l 0.0593,-0.99824027 z m 6.03229,0.9149348 c 0.99046,0.244186 1.96774,0.5330126 2.93184,0.8664799 l -0.32687,0.9450636 C 197.68857,2.9619355 196.74046,2.6817307 195.77948,2.444819 Z m 5.77188,1.9963682 c 0.92682,0.418642 1.83272,0.8785638 2.7177,1.379765 l -0.4928,0.870142 c -0.85855,-0.4862361 -1.7374,-0.932425 -2.63655,-1.3385668 z m 5.3138,3.0112691 c 0.83513,0.5797834 1.64215,1.1962652 2.42105,1.8494458 l -0.64255,0.766241 c -0.75566,-0.6336774 -1.53859,-1.2317571 -2.34878,-1.7942404 z m 4.67267,3.9198491 c 0.71882,0.724261 1.40316,1.479838 2.05302,2.26673 l -0.77106,0.636776 c -0.63049,-0.763413 -1.2944,-1.496439 -1.99174,-2.199075 z m 3.88331,4.700327 c 0.57768,0.845559 1.11547,1.715741 1.61334,2.610545 l -0.87384,0.486198 c -0.48301,-0.868057 -1.00474,-1.712261 -1.56518,-2.532612 z m 2.97104,5.335198 c 0.41371,0.934351 0.78388,1.885548 1.11047,2.85359 l -0.94754,0.319672 c -0.31689,-0.939223 -0.67599,-1.862017 -1.0773,-2.768381 z m 1.95325,5.786203 c 0.23619,0.989539 0.42692,1.987986 0.5722,2.995343 l -0.98974,0.142757 c -0.14093,-0.977192 -0.32598,-1.945846 -0.55515,-2.905964 z m 0.87005,6.038374 C 221.48494,32.840694 221.49998,33.4202 221.5,34 v 1.247437 h -1 V 34 c 0,-0.562439 -0.0146,-1.124649 -0.0438,-1.686634 l 0.99865,-0.05189 z m 0.0451,5.985959 v 3 h -1 v -3 z m 0,6 v 3 h -1 v -3 z m 0,6 v 3 h -1 v -3 z m 0,6 v 3 h -1 v -3 z m 0,6 v 3 h -1 v -3 z m 0,6 v 3 h -1 v -3 z m 0,6 v 3 h -1 v -3 z m 0,6 v 3 h -1 v -3 z m 0,6 v 3 h -1 v -3 z m 0,6 v 3 h -1 v -3 z m 0,6 v 3.000003 h -1 v -3.000003 z m 0,6.000003 v 3 h -1 v -3 z m 0,6 v 3 h -1 v -3 z m 0,6 v 3 h -1 v -3 z m 0,6 v 3 h -1 v -3 z m 0,6 v 3 h -1 v -3 z m 0,6 v 3 h -1 v -3 z m 0,6 v 3 h -1 v -3 z m 0,6 v 3 h -1 v -3 z m 0,6 v 3 h -1 v -3 z m 0,6 v 3 h -1 v -3 z m 0,6 v 3 h -1 v -3 z m 0,6 v 3 h -1 v -3 z m 0,6 v 3 h -1 v -3 z m 0,6 v 3 h -1 v -3 z m 0,6 v 3 h -1 v -3 z m 0,6 v 3 h -1 v -3 z m 0,6 v 3 h -1 v -3 z m 0,6 v 3 h -1 v -3 z m 0,6 v 3 h -1 v -3 z m 0,6 v 3 h -1 v -3 z m 0,6 v 3 h -1 v -3 z m 0,6 v 3 h -1 v -3 z m 0,6 v 3 h -1 v -3 z m 0,6 v 3 h -1 v -3 z m 0,6 v 3 h -1 v -3 z m 0,6 v 3 h -1 v -3 z m -0.0746,5.98779 c -0.0685,1.02371 -0.1837,2.04187 -0.34559,3.05444 l -0.98746,-0.1579 c 0.15707,-0.98233 0.26883,-1.97009 0.33528,-2.96325 l 0.99777,0.0667 z m -0.95988,6.02563 c -0.252,0.99039 -0.54875,1.96735 -0.89023,2.93082 l -0.94253,-0.33404 c 0.33125,-0.93467 0.61912,-1.88245 0.86364,-2.84336 z m -2.0394,5.75715 c -0.42618,0.92492 -0.89345,1.8284 -1.40179,2.71041 l -0.8664,-0.49932 c 0.49314,-0.85566 0.94646,-1.73218 1.35996,-2.62955 z m -3.05131,5.2919 c -0.5862,0.83099 -1.20903,1.63375 -1.86847,2.40829 l -0.76139,-0.64831 c 0.63988,-0.7515 1.24411,-1.53031 1.81272,-2.3364 z m -3.95609,4.64453 c -0.72966,0.71335 -1.4902,1.39184 -2.28165,2.03549 l -0.63095,-0.77582 c 0.7679,-0.62451 1.50576,-1.28274 2.21353,-1.9747 z m -4.72757,3.84649 c -0.85045,0.57184 -1.72537,1.10352 -2.6248,1.59504 l -0.47955,-0.87751 c 0.87266,-0.4769 1.72146,-0.9927 2.5464,-1.54736 z m -5.35617,2.93064 c -0.93871,0.40735 -1.89432,0.77099 -2.86687,1.09091 l -0.31247,-0.94995 c 0.94371,-0.31049 1.87082,-0.66327 2.7813,-1.05832 z m -5.79996,1.91003 c -0.99376,0.22946 -1.99609,0.41312 -3.00703,0.551 l -0.13513,-0.99085 c 0.98091,-0.13376 1.95331,-0.31195 2.91722,-0.53451 z m -6.04397,0.8252 c -0.49633,0.0221 -0.99332,0.0332 -1.49098,0.0332 h -1.49495 v -1 h 1.49491 c 0.48264,-3e-5 0.96482,-0.0108 1.44652,-0.0322 l 0.0445,0.99903 z m -5.98593,0.0332 h -3 v -1 h 3 z m -6,0 h -3 v -1 h 3 z m -6,0 h -3 v -1 h 3 z m -6,0 h -3 v -1 h 3 z m -6,0 h -3 v -1 h 3 z m -6,0 h -3 v -1 h 3 z m -6,0 h -3 v -1 h 3 z m -6,0 h -3 v -1 h 3 z m -6,0 h -3 v -1 h 3 z m -6,0 h -3 v -1 h 3 z m -6,0 h -3 v -1 h 3 z m -6,0 h -3 v -1 h 3 z m -6,0 h -3.00001 v -1 h 3.00001 z m -6,0 h -3 v -1 h 3 z m -6.000004,0 h -3 v -1 h 3 z m -6,0 h -3 v -1 h 3 z m -6,0 h -3.000008 v -1 h 3.000008 z m -5.999992,0 h -3.000008 v -1 h 3.000008 z m -6.000008,0 h -3 v -1 h 3 z m -6,0 h -3 v -1 h 3 z m -6,0 h -3 v -1 h 3 z m -6,0 h -3 v -1 h 3 z m -6,0 h -3 v -1 h 3 z m -6,0 h -3 v -1 h 3 z m -6,0 h -3 v -1 h 3 z m -5.992558,-0.004 c -1.006019,-0.0146 -2.009262,-0.0745 -3.009727,-0.1795 l 0.104431,-0.99451 c 0.970518,0.1019 1.943787,0.15994 2.919808,0.17413 l -0.01451,0.99988 z m -6.061292,-0.64276 c -0.988486,-0.19705 -1.965969,-0.43817 -2.93245,-0.72336 l 0.282994,-0.95911 c 0.937473,0.27665 1.885793,0.51056 2.844959,0.70176 z M 21.60026,289.1207 c -0.937601,-0.37363 -1.856295,-0.78867 -2.756085,-1.24509 l 0.452397,-0.89185 c 0.873171,0.44291 1.764456,0.84559 2.673858,1.20798 z m -5.426054,-2.75714 c -0.861125,-0.5412 -1.695931,-1.12046 -2.504419,-1.73777 l 0.606863,-0.7948 c 0.784294,0.59885 1.594184,1.1608 2.429672,1.68589 z m -4.844943,-3.70008 c -0.751802,-0.6911 -1.4704697,-1.41498 -2.1560052,-2.17166 l 0.7410946,-0.67139 c 0.6650656,0.73414 1.3622836,1.43641 2.0916546,2.10685 z M 7.2285457,278.138 C 6.616539,277.32443 6.0427685,276.48462 5.5072346,275.61853 l 0.8505287,-0.52594 c 0.5195689,0.84024 1.0762124,1.655 1.6699314,2.44428 z m -3.2124791,-5.19763 c -0.4503887,-0.9039 -0.8591331,-1.82645 -1.2262335,-2.76764 l 0.9316454,-0.36334 c 0.3560996,0.91299 0.7526445,1.80801 1.1896352,2.68499 z m -2.2139707,-5.69132 c -0.2776927,-0.9667 -0.5113743,-1.9439 -0.7010448,-2.93167 l 0.9820576,-0.1886 c 0.1840245,0.95829 0.4107315,1.90638 0.6801207,2.84421 z m -1.14348579,-5.99301 c -0.0975145,-0.99853 -0.15006525,-1.99942 -0.15765238,-3.00268 l 0.99997137,-0.008 c 0.00736,0.97333 0.058343,1.94437 0.1529467,2.91308 l -0.99526569,0.0972 z M 0.5,255.25757 v -3 h 1 v 3 z m 0,-6 v -3 h 1 v 3 z m 0,-6 v -3 h 1 v 3 z m 0,-6 v -3 h 1 v 3 z m 0,-6 v -3 h 1 v 3 z m 0,-6 v -3 h 1 v 3 z m 0,-6 v -3 h 1 v 3 z m 0,-6 v -3 h 1 v 3 z m 0,-6 v -3 h 1 v 3 z m 0,-6 v -3 h 1 v 3 z m 0,-6 v -3 h 1 v 3 z m 0,-6 v -3 h 1 v 3 z m 0,-6 v -3 h 1 v 3 z m 0,-6 v -3 h 1 v 3 z m 0,-6 v -3 h 1 v 3 z m 0,-6 v -3 h 1 v 3 z m 0,-6 v -3 h 1 v 3 z m 0,-6 v -3 h 1 v 3 z m 0,-6 v -3 h 1 v 3 z m 0,-6 v -3 h 1 v 3 z m 0,-6 v -3 h 1 v 3 z m 0,-6 v -3 h 1 v 3 z m 0,-6 v -3 h 1 v 3 z m 0,-6 v -3 h 1 v 3 z m 0,-6 v -3 h 1 v 3 z m 0,-6 v -3 h 1 v 3 z m 0,-6.000002 v -3 h 1 v 3 z m 0,-6 v -3 h 1 v 3 z m 0,-6 v -3 h 1 v 3 z m 0,-6 v -3 h 1 v 3 z m 0,-6 v -3 h 1 v 3 z m 0,-6 v -3 h 1 v 3 z m 0,-6 v -3 h 1 v 3 z m 0,-6 v -3 h 1 v 3 z m 0,-6 v -3 h 1 v 3 z m 0,-6 v -3 h 1 v 3 z m 0,-6 v -3 h 1 v 3 z m 0.008006,-5.989914 c 0.0220547,-1.008609 0.0895332,-2.014175 0.20243555,-3.016695 l 0.99371815,0.111912 c -0.1095317,0.97259 -0.174996,1.948137 -0.1963926,2.926642 z m 0.6873562,-6.057775 c 0.2046973,-0.988943 0.4536037,-1.966625 0.7467197,-2.933043 l 0.9569526,0.290245 C 2.6146688,25.504652 2.3731923,26.453148 2.1746051,27.412569 Z M 2.971807,21.370621 C 3.3527534,20.4347 3.7751863,19.517883 4.2391057,18.620171 l 0.8883848,0.459098 C 4.6774187,19.950186 4.2675958,20.839634 3.8980217,21.747616 Z M 5.77283,15.959023 c 0.5471768,-0.856122 1.132093,-1.685635 1.7547484,-2.488536 l 0.7902212,0.612821 c -0.6040712,0.77894 -1.1715274,1.583689 -1.7023678,2.414251 z M 9.5080395,11.144064 C 10.204698,10.397535 10.933955,9.6843596 11.695813,9.0045366 l 0.665795,0.7461357 c -0.739122,0.6595367 -1.44661,1.3514217 -2.122465,2.0756557 z M 14.06332,7.0782843 c 0.819078,-0.6065641 1.664072,-1.1745601 2.534983,-1.7039881 l 0.519451,0.8544998 c -0.844915,0.5136266 -1.664685,1.0646668 -2.459309,1.65312 z m 5.221457,-3.1733361 c 0.909214,-0.4445722 1.836668,-0.84711 2.782364,-1.2076139 l 0.356201,0.9344091 C 21.505878,3.9814856 20.60611,4.3720069 19.724039,4.8033066 Z m 5.708206,-2.1713936 c 0.967104,-0.2699649 1.944364,-0.4959909 2.931782,-0.6780782 l 0.18135,0.983419 C 27.148165,2.215548 26.200077,2.4348269 25.26185,2.6967313 Z M 30.99482,0.63506651 c 0.996391,-0.0897455 1.9948,-0.13476735 2.995227,-0.13506556 l 2.98e-4,0.99999995 C 33.019783,1.50029 32.051174,1.543968 31.084526,1.6310346 Z M 34,0.5 h 3 v 1 h -3 z"
             style="fill:#000000;fill-opacity:1;fill-rule:nonzero;stroke:none"
             id="path40"
             inkscape:connector-curvature="0" /><path
             d="M 11,51 H 211 V 251 H 11 Z"
             style="fill:#f5f5f5;fill-opacity:1;fill-rule:nonzero;stroke:none"
             id="path42"
             inkscape:connector-curvature="0" /><path
             d="M 11,51 H 211 V 251 H 11 Z"
             style="fill:none;stroke:#666666;stroke-width:1;stroke-linecap:butt;stroke-linejoin:miter;stroke-miterlimit:10;stroke-dasharray:none;stroke-opacity:1"
             id="path44"
             inkscape:connector-curvature="0" /></g><g
           id="g46"
           transform="matrix(2.991591,0,0,2.991591,203.42819,53.848637)"><text
             transform="translate(0,22)"
             style="font-variant:normal;font-weight:bold;font-size:24px;font-family:Helvetica;-inkscape-font-specification:Helvetica-Bold;writing-mode:lr-tb;fill:#000000;fill-opacity:1;fill-rule:nonzero;stroke:none"
             id="text50"><tspan
               x="0 16.007812 30.667969 37.335938 44.003906 58.664062 65.332031 73.324219"
               y="0"
               sodipodi:role="line"
               id="tspan48">Solidity</tspan></text>
</g><g
           id="g52"
           transform="matrix(2.991591,0,0,2.991591,1.4957955,1.4957955)"><path
             d="M 251,51 H 451 V 251 H 251 Z"
             style="fill:#f5f5f5;fill-opacity:1;fill-rule:nonzero;stroke:none"
             id="path54"
             inkscape:connector-curvature="0" /><path
             d="M 251,51 H 451 V 251 H 251 Z"
             style="fill:none;stroke:#666666;stroke-width:1;stroke-linecap:butt;stroke-linejoin:miter;stroke-miterlimit:10;stroke-dasharray:none;stroke-opacity:1"
             id="path56"
             inkscape:connector-curvature="0" /></g><g
           id="g58"
           transform="matrix(2.991591,0,0,2.991591,870.55298,53.848637)"><text
             transform="translate(0,22)"
             style="font-variant:normal;font-weight:bold;font-size:24px;font-family:Helvetica;-inkscape-font-specification:Helvetica-Bold;writing-mode:lr-tb;fill:#000000;fill-opacity:1;fill-rule:nonzero;stroke:none"
             id="text62"><tspan
               x="0 13.347656 26.695312 40.042969 53.390625 69.398438 82.746094 92.085938 98.753906 113.41406"
               y="0"
               sodipodi:role="line"
               id="tspan60">JavaScript</tspan></text>
</g><g
           id="g64"
           transform="matrix(2.991591,0,0,2.991591,1.4957955,1.4957955)"><path
             d="M 491,51 H 691 V 251 H 491 Z"
             style="fill:#f5f5f5;fill-opacity:1;fill-rule:nonzero;stroke:none"
             id="path66"
             inkscape:connector-curvature="0" /><path
             d="M 491,51 H 691 V 251 H 491 Z"
             style="fill:none;stroke:#666666;stroke-width:1;stroke-linecap:butt;stroke-linejoin:miter;stroke-miterlimit:10;stroke-dasharray:none;stroke-opacity:1"
             id="path68"
             inkscape:connector-curvature="0" /></g><g
           id="g70"
           transform="matrix(2.991591,0,0,2.991591,1528.703,53.848637)"><text
             transform="translate(0,22)"
             style="font-variant:normal;font-weight:bold;font-size:24px;font-family:Helvetica;-inkscape-font-specification:Helvetica-Bold;writing-mode:lr-tb;fill:#000000;fill-opacity:1;fill-rule:nonzero;stroke:none"
             id="text74"><tspan
               x="0 17.332031 30.679688 44.027344 53.367188 60.035156 66.703125 81.363281 89.355469 102.70312 112.04297 120.03516 133.38281 146.73047"
               y="0"
               sodipodi:role="line"
               id="tspan72">User Interface</tspan></text>
</g><g
           id="g76"
           transform="matrix(2.991591,0,0,2.991591,1.4957955,1.4957955)"><path
             d="m 731,182.5 c 0,-25.2 0,-37.8 20,-37.8 -13.33002,0 -13.33002,-25.2 0,-25.2 13.33002,0 13.33002,25.2 0,25.2 20,0 20,12.6 20,37.8 z"
             style="fill:#ffffff;fill-opacity:1;fill-rule:nonzero;stroke:none"
             id="path78"
             inkscape:connector-curvature="0" /><path
             d="m 731,182.5 c 0,-25.2 0,-37.8 20,-37.8 -13.33002,0 -13.33002,-25.2 0,-25.2 13.33002,0 13.33002,25.2 0,25.2 20,0 20,12.6 20,37.8 z"
             style="fill:none;stroke:#000000;stroke-width:1;stroke-linecap:butt;stroke-linejoin:miter;stroke-miterlimit:10;stroke-dasharray:none;stroke-opacity:1"
             id="path80"
             inkscape:connector-curvature="0" /><path
             d="m 51,71 h 120 v 40 H 51 Z"
             style="fill:#ffffff;fill-opacity:1;fill-rule:nonzero;stroke:none"
             id="path82"
             inkscape:connector-curvature="0" /><path
             d="m 51,71 h 120 v 40 H 51 Z"
             style="fill:none;stroke:#000000;stroke-width:1;stroke-linecap:butt;stroke-linejoin:miter;stroke-miterlimit:10;stroke-dasharray:none;stroke-opacity:1"
             id="path84"
             inkscape:connector-curvature="0" /></g><g
           id="g86"
           transform="matrix(2.991591,0,0,2.991591,293.1759,254.28523)"><text
             transform="translate(0.984375,11)"
             style="font-variant:normal;font-weight:bold;font-size:12px;font-family:Helvetica;-inkscape-font-specification:Helvetica-Bold;writing-mode:lr-tb;fill:#000000;fill-opacity:1;fill-rule:nonzero;stroke:none"
             id="text90"><tspan
               x="0 8.6660156 15.339844 19.335938"
               y="0"
               sodipodi:role="line"
               id="tspan88">Data</tspan></text>
</g><g
           id="g92"
           transform="matrix(2.991591,0,0,2.991591,1.4957955,1.4957955)"><path
             d="m 51,131 h 120 v 40 H 51 Z"
             style="fill:#ffffff;fill-opacity:1;fill-rule:nonzero;stroke:none"
             id="path94"
             inkscape:connector-curvature="0" /><path
             d="m 51,131 h 120 v 40 H 51 Z"
             style="fill:none;stroke:#000000;stroke-width:1;stroke-linecap:butt;stroke-linejoin:miter;stroke-miterlimit:10;stroke-dasharray:none;stroke-opacity:1"
             id="path96"
             inkscape:connector-curvature="0" /></g><g
           id="g98"
           transform="matrix(2.991591,0,0,2.991591,188.47023,433.7807)"><text
             transform="translate(0.65625,11)"
             style="font-variant:normal;font-weight:bold;font-size:12px;font-family:Helvetica;-inkscape-font-specification:Helvetica-Bold;writing-mode:lr-tb;fill:#000000;fill-opacity:1;fill-rule:nonzero;stroke:none"
             id="text102"><tspan
               x="0 8.0039062 15.333984 22.664062 25.998047 29.332031 36.005859 39.339844 46.669922 54 61.330078 68.003906 72 75.333984 82.664062 89.994141"
               y="0"
               sodipodi:role="line"
               id="tspan100">Public Functions</tspan></text>
</g><g
           id="g104"
           transform="matrix(2.991591,0,0,2.991591,1.4957955,1.4957955)"><path
             d="m 51,191 h 120 v 40 H 51 Z"
             style="fill:#ffffff;fill-opacity:1;fill-rule:nonzero;stroke:none"
             id="path106"
             inkscape:connector-curvature="0" /><path
             d="m 51,191 h 120 v 40 H 51 Z"
             style="fill:none;stroke:#000000;stroke-width:1;stroke-linecap:butt;stroke-linejoin:miter;stroke-miterlimit:10;stroke-dasharray:none;stroke-opacity:1"
             id="path108"
             inkscape:connector-curvature="0" /></g><g
           id="g110"
           transform="matrix(2.991591,0,0,2.991591,182.48705,613.27612)"><text
             transform="translate(0.65625,11)"
             style="font-variant:normal;font-weight:bold;font-size:12px;font-family:Helvetica;-inkscape-font-specification:Helvetica-Bold;writing-mode:lr-tb;fill:#000000;fill-opacity:1;fill-rule:nonzero;stroke:none"
             id="text114"><tspan
               x="0 8.0039062 12.673828 16.007812 22.681641 29.355469 33.351562 40.025391 43.359375 50.689453 58.019531 65.349609 72.023438 76.019531 79.353516 86.683594 94.013672"
               y="0"
               sodipodi:role="line"
               id="tspan112">Private Functions</tspan></text>
</g><g
           id="g116"
           transform="matrix(2.991591,0,0,2.991591,1.4957955,1.4957955)"><path
             d="m 291,71 h 120 v 40 H 291 Z"
             style="fill:#ffffff;fill-opacity:1;fill-rule:nonzero;stroke:none"
             id="path118"
             inkscape:connector-curvature="0" /><path
             d="m 291,71 h 120 v 40 H 291 Z"
             style="fill:none;stroke:#000000;stroke-width:1;stroke-linecap:butt;stroke-linejoin:miter;stroke-miterlimit:10;stroke-dasharray:none;stroke-opacity:1"
             id="path120"
             inkscape:connector-curvature="0" /></g><g
           id="g122"
           transform="matrix(2.991591,0,0,2.991591,1011.1578,254.28523)"><text
             transform="translate(0.984375,11)"
             style="font-variant:normal;font-weight:bold;font-size:12px;font-family:Helvetica;-inkscape-font-specification:Helvetica-Bold;writing-mode:lr-tb;fill:#000000;fill-opacity:1;fill-rule:nonzero;stroke:none"
             id="text126"><tspan
               x="0 8.6660156 15.339844 19.335938"
               y="0"
               sodipodi:role="line"
               id="tspan124">Data</tspan></text>
</g><g
           id="g128"
           transform="matrix(2.991591,0,0,2.991591,1.4957955,1.4957955)"><path
             d="m 291,131 h 120 v 40 H 291 Z"
             style="fill:#ffffff;fill-opacity:1;fill-rule:nonzero;stroke:none"
             id="path130"
             inkscape:connector-curvature="0" /><path
             d="m 291,131 h 120 v 40 H 291 Z"
             style="fill:none;stroke:#000000;stroke-width:1;stroke-linecap:butt;stroke-linejoin:miter;stroke-miterlimit:10;stroke-dasharray:none;stroke-opacity:1"
             id="path132"
             inkscape:connector-curvature="0" /></g><g
           id="g134"
           transform="matrix(2.991591,0,0,2.991591,912.43524,433.7807)"><text
             transform="translate(0.765625,11)"
             style="font-variant:normal;font-weight:bold;font-size:12px;font-family:Helvetica;-inkscape-font-specification:Helvetica-Bold;writing-mode:lr-tb;fill:#000000;fill-opacity:1;fill-rule:nonzero;stroke:none"
             id="text138"><tspan
               x="0 11.115234 17.789062 25.119141 31.792969 35.126953 42.457031 49.787109 57.117188 63.791016 67.787109 71.121094 78.451172 85.78125"
               y="0"
               sodipodi:role="line"
               id="tspan136">Web3 Functions</tspan></text>
</g><g
           id="g140"
           transform="matrix(2.991591,0,0,2.991591,1.4957955,1.4957955)"><path
             d="m 291,191 h 120 v 40 H 291 Z"
             style="fill:#ffffff;fill-opacity:1;fill-rule:nonzero;stroke:none"
             id="path142"
             inkscape:connector-curvature="0" /><path
             d="m 291,191 h 120 v 40 H 291 Z"
             style="fill:none;stroke:#000000;stroke-width:1;stroke-linecap:butt;stroke-linejoin:miter;stroke-miterlimit:10;stroke-dasharray:none;stroke-opacity:1"
             id="path144"
             inkscape:connector-curvature="0" /></g><g
           id="g146"
           transform="matrix(2.991591,0,0,2.991591,942.35114,613.27612)"><text
             transform="translate(0.65625,11)"
             style="font-variant:normal;font-weight:bold;font-size:12px;font-family:Helvetica;-inkscape-font-specification:Helvetica-Bold;writing-mode:lr-tb;fill:#000000;fill-opacity:1;fill-rule:nonzero;stroke:none"
             id="text150"><tspan
               x="0 8.6660156 12 15.333984 22.664062 29.994141 37.324219 43.998047 47.994141 51.328125 58.658203 65.988281"
               y="0"
               sodipodi:role="line"
               id="tspan148">UI Functions</tspan></text>
</g><g
           id="g152"
           transform="matrix(2.991591,0,0,2.991591,1.4957955,1.4957955)"><path
             d="m 521,161 h 140 v 30 H 521 Z"
             style="fill:#ffffff;fill-opacity:1;fill-rule:nonzero;stroke:none"
             id="path154"
             inkscape:connector-curvature="0" /><path
             d="m 521,161 h 140 v 30 H 521 Z"
             style="fill:none;stroke:#000000;stroke-width:1;stroke-linecap:butt;stroke-linejoin:miter;stroke-miterlimit:10;stroke-dasharray:none;stroke-opacity:1"
             id="path156"
             inkscape:connector-curvature="0" /></g><g
           id="g158"
           transform="matrix(2.991591,0,0,2.991591,1597.5095,508.57047)"><text
             transform="translate(0.296875,11)"
             style="font-variant:normal;font-weight:bold;font-size:12px;font-family:Helvetica;-inkscape-font-specification:Helvetica-Bold;writing-mode:lr-tb;fill:#000000;fill-opacity:1;fill-rule:nonzero;stroke:none"
             id="text162"><tspan
               x="0 8.6660156 12 18.673828 26.003906 29.337891 36.011719 42.685547 49.359375 56.689453 60.023438 68.027344 71.361328 78.035156 88.705078 95.378906 102.70898 106.70508"
               y="0"
               sodipodi:role="line"
               id="tspan160">Displayed Elements</tspan></text>
</g><g
           id="g164"
           transform="matrix(2.991591,0,0,2.991591,1.4957955,1.4957955)"><path
             d="m 521,71 h 140 v 30 H 521 Z"
             style="fill:#ffffff;fill-opacity:1;fill-rule:nonzero;stroke:none"
             id="path166"
             inkscape:connector-curvature="0" /><path
             d="m 521,71 h 140 v 30 H 521 Z"
             style="fill:none;stroke:#000000;stroke-width:1;stroke-linecap:butt;stroke-linejoin:miter;stroke-miterlimit:10;stroke-dasharray:none;stroke-opacity:1"
             id="path168"
             inkscape:connector-curvature="0" /></g><g
           id="g170"
           transform="matrix(2.991591,0,0,2.991591,1609.476,239.32727)"><text
             transform="translate(0.71875,11)"
             style="font-variant:normal;font-weight:bold;font-size:12px;font-family:Helvetica;-inkscape-font-specification:Helvetica-Bold;writing-mode:lr-tb;fill:#000000;fill-opacity:1;fill-rule:nonzero;stroke:none"
             id="text174"><tspan
               x="0 8.6660156 12 18.673828 22.007812 29.337891 36.667969 43.998047 50.671875 54.005859 65.226562 68.560547 75.890625 83.220703 90.550781 99.884766"
               y="0"
               sodipodi:role="line"
               id="tspan172">Dialogue Windows</tspan></text>
</g><g
           id="g176"
           transform="matrix(2.991591,0,0,2.991591,1.4957955,1.4957955)"><path
             d="m 521,191 h 70 v 40 h -70 z"
             style="fill:#ffffff;fill-opacity:1;fill-rule:nonzero;stroke:none"
             id="path178"
             inkscape:connector-curvature="0" /><path
             d="m 521,191 h 70 v 40 h -70 z"
             style="fill:none;stroke:#000000;stroke-width:1;stroke-linecap:butt;stroke-linejoin:miter;stroke-miterlimit:10;stroke-dasharray:none;stroke-opacity:1"
             id="path180"
             inkscape:connector-curvature="0" /></g><g
           id="g182"
           transform="matrix(2.991591,0,0,2.991591,1582.5516,613.27612)"><text
             transform="translate(0.984375,11)"
             style="font-variant:normal;font-weight:normal;font-size:12px;font-family:Helvetica;-inkscape-font-specification:Helvetica;writing-mode:lr-tb;fill:#000000;fill-opacity:1;fill-rule:nonzero;stroke:none"
             id="text186"><tspan
               x="0 8.6660156 14.666016 21.339844 25.335938 28.669922 37.335938 44.009766 47.34375"
               y="0"
               sodipodi:role="line"
               id="tspan184">User Data</tspan></text>
</g><g
           id="g188"
           transform="matrix(2.991591,0,0,2.991591,1.4957955,1.4957955)"><path
             d="m 591,191 h 70 v 40 h -70 z"
             style="fill:#ffffff;fill-opacity:1;fill-rule:nonzero;stroke:none"
             id="path190"
             inkscape:connector-curvature="0" /><path
             d="m 591,191 h 70 v 40 h -70 z"
             style="fill:none;stroke:#000000;stroke-width:1;stroke-linecap:butt;stroke-linejoin:miter;stroke-miterlimit:10;stroke-dasharray:none;stroke-opacity:1"
             id="path192"
             inkscape:connector-curvature="0" /></g><g
           id="g194"
           transform="matrix(2.991591,0,0,2.991591,1818.8873,613.27612)"><text
             transform="translate(0.65625,11)"
             style="font-variant:normal;font-weight:normal;font-size:12px;font-family:Helvetica;-inkscape-font-specification:Helvetica;writing-mode:lr-tb;fill:#000000;fill-opacity:1;fill-rule:nonzero;stroke:none"
             id="text198"><tspan
               x="0 7.3300781 14.003906 20.003906 26.677734 30.673828"
               y="0"
               sodipodi:role="line"
               id="tspan196">Favors</tspan></text>
</g><g
           id="g200"
           transform="matrix(2.991591,0,0,2.991591,1.4957955,1.4957955)"><path
             d="m 521,101 h 70 v 40 h -70 z"
             style="fill:#ffffff;fill-opacity:1;fill-rule:nonzero;stroke:none"
             id="path202"
             inkscape:connector-curvature="0" /><path
             d="m 521,101 h 70 v 40 h -70 z"
             style="fill:none;stroke:#000000;stroke-width:1;stroke-linecap:butt;stroke-linejoin:miter;stroke-miterlimit:10;stroke-dasharray:none;stroke-opacity:1"
             id="path204"
             inkscape:connector-curvature="0" /></g><g
           id="g206"
           transform="matrix(2.991591,0,0,2.991591,1564.6021,323.09183)"><text
             transform="translate(11.984375,11)"
             style="font-variant:normal;font-weight:normal;font-size:12px;font-family:Helvetica;-inkscape-font-specification:Helvetica;writing-mode:lr-tb;fill:#000000;fill-opacity:1;fill-rule:nonzero;stroke:none"
             id="text210"><tspan
               x="0 8.6660156 15.339844 22.013672 28.6875 35.361328"
               y="0"
               sodipodi:role="line"
               id="tspan208">Change</tspan></text>
<text
             transform="translate(8.65625,25)"
             style="font-variant:normal;font-weight:normal;font-size:12px;font-family:Helvetica;-inkscape-font-specification:Helvetica;writing-mode:lr-tb;fill:#000000;fill-opacity:1;fill-rule:nonzero;stroke:none"
             id="text214"><tspan
               x="0 8.6660156 14.666016 21.339844 25.335938 28.669922 32.003906 38.677734 42.011719"
               y="0"
               sodipodi:role="line"
               id="tspan212">User Info</tspan></text>
</g><g
           id="g216"
           transform="matrix(2.991591,0,0,2.991591,1.4957955,1.4957955)"><path
             d="m 591,101 h 70 v 40 h -70 z"
             style="fill:#ffffff;fill-opacity:1;fill-rule:nonzero;stroke:none"
             id="path218"
             inkscape:connector-curvature="0" /><path
             d="m 591,101 h 70 v 40 h -70 z"
             style="fill:none;stroke:#000000;stroke-width:1;stroke-linecap:butt;stroke-linejoin:miter;stroke-miterlimit:10;stroke-dasharray:none;stroke-opacity:1"
             id="path220"
             inkscape:connector-curvature="0" /></g><g
           id="g222"
           transform="matrix(2.991591,0,0,2.991591,1774.0134,323.09183)"><text
             transform="translate(1.328125,11)"
             style="font-variant:normal;font-weight:normal;font-size:12px;font-family:Helvetica;-inkscape-font-specification:Helvetica;writing-mode:lr-tb;fill:#000000;fill-opacity:1;fill-rule:nonzero;stroke:none"
             id="text226"><tspan
               x="0 8.6660156 12.662109 19.335938 26.009766 29.34375 36.017578 39.351562 48.017578 54.691406"
               y="0"
               sodipodi:role="line"
               id="tspan224">Create New</tspan></text>
<text
             transform="translate(17.65625,25)"
             style="font-variant:normal;font-weight:normal;font-size:12px;font-family:Helvetica;-inkscape-font-specification:Helvetica;writing-mode:lr-tb;fill:#000000;fill-opacity:1;fill-rule:nonzero;stroke:none"
             id="text230"><tspan
               x="0 7.3300781 14.003906 20.003906 26.677734"
               y="0"
               sodipodi:role="line"
               id="tspan228">Favor</tspan></text>
</g><g
           id="g232"
           transform="matrix(2.991591,0,0,2.991591,1.4957955,1.4957955)"><path
             d="M 735,151 665.78003,90.199997"
             style="fill:none;stroke:#000000;stroke-width:1;stroke-linecap:butt;stroke-linejoin:miter;stroke-miterlimit:10;stroke-dasharray:none;stroke-opacity:1"
             id="path234"
             inkscape:connector-curvature="0" /><path
             d="m 661.84003,86.739998 7.56994,1.990005 -3.62994,1.469994 -0.99005,3.790001 z"
             style="fill:#000000;fill-opacity:1;fill-rule:nonzero;stroke:none"
             id="path236"
             inkscape:connector-curvature="0" /><path
             d="m 661.84003,86.739998 7.56994,1.990005 -3.62994,1.469994 -0.99005,3.790001 z"
             style="fill:none;stroke:#000000;stroke-width:1;stroke-linecap:butt;stroke-linejoin:miter;stroke-miterlimit:10;stroke-dasharray:none;stroke-opacity:1"
             id="path238"
             inkscape:connector-curvature="0" /><path
             d="m 661,176 63.67999,-8.19"
             style="fill:none;stroke:#000000;stroke-width:1;stroke-linecap:butt;stroke-linejoin:miter;stroke-miterlimit:10;stroke-dasharray:none;stroke-opacity:1"
             id="path240"
             inkscape:connector-curvature="0" /><path
             d="m 729.89001,167.14 -6.5,4.36999 1.28998,-3.69999 -2.17999,-3.25 z"
             style="fill:#000000;fill-opacity:1;fill-rule:nonzero;stroke:none"
             id="path242"
             inkscape:connector-curvature="0" /><path
             d="m 729.89001,167.14 -6.5,4.36999 1.28998,-3.69999 -2.17999,-3.25 z"
             style="fill:none;stroke:#000000;stroke-width:1;stroke-linecap:butt;stroke-linejoin:miter;stroke-miterlimit:10;stroke-dasharray:none;stroke-opacity:1"
             id="path244"
             inkscape:connector-curvature="0" /><path
             d="M 521,86 416.48001,147.75999"
             style="fill:none;stroke:#000000;stroke-width:1;stroke-linecap:butt;stroke-linejoin:miter;stroke-miterlimit:10;stroke-dasharray:none;stroke-opacity:1"
             id="path246"
             inkscape:connector-curvature="0" /><path
             d="m 411.95999,150.42999 4.25,-6.56999 0.27002,3.89999 3.28998,2.12001 z"
             style="fill:#000000;fill-opacity:1;fill-rule:nonzero;stroke:none"
             id="path248"
             inkscape:connector-curvature="0" /><path
             d="m 411.95999,150.42999 4.25,-6.56999 0.27002,3.89999 3.28998,2.12001 z"
             style="fill:none;stroke:#000000;stroke-width:1;stroke-linecap:butt;stroke-linejoin:miter;stroke-miterlimit:10;stroke-dasharray:none;stroke-opacity:1"
             id="path250"
             inkscape:connector-curvature="0" /><path
             d="M 411,211 514.92999,177.92999"
             style="fill:none;stroke:#000000;stroke-width:1;stroke-linecap:butt;stroke-linejoin:miter;stroke-miterlimit:10;stroke-dasharray:none;stroke-opacity:1"
             id="path252"
             inkscape:connector-curvature="0" /><path
             d="m 519.92999,176.34 -5.59997,5.46 0.59997,-3.87001 -2.72998,-2.79999 z"
             style="fill:#000000;fill-opacity:1;fill-rule:nonzero;stroke:none"
             id="path254"
             inkscape:connector-curvature="0" /><path
             d="m 519.92999,176.34 -5.59997,5.46 0.59997,-3.87001 -2.72998,-2.79999 z"
             style="fill:none;stroke:#000000;stroke-width:1;stroke-linecap:butt;stroke-linejoin:miter;stroke-miterlimit:10;stroke-dasharray:none;stroke-opacity:1"
             id="path256"
             inkscape:connector-curvature="0" /><path
             d="m 44.630001,81.5 c -0.339283,0 -0.674736,0.01035 -1.006359,0.03107 L 43.56131,80.533005 C 43.91362,80.511002 44.269852,80.5 44.630001,80.5 Z m -2.946407,0.278954 c -0.315327,0.06189 -0.62682,0.134071 -0.934479,0.216545 l -0.258926,-0.965897 c 0.329578,-0.08836 0.663185,-0.165665 1.000816,-0.231926 z m -2.731591,0.833519 c -0.289791,0.122413 -0.575965,0.254959 -0.858516,0.397644 l -0.450775,-0.89264 c 0.302761,-0.152893 0.609485,-0.29496 0.920177,-0.426193 z m -2.511844,1.376441 c -0.268711,0.183732 -0.533821,0.377678 -0.795334,0.581833 l -0.615372,-0.788238 c 0.278054,-0.217079 0.56015,-0.423439 0.846291,-0.61908 z m -2.259949,1.868935 c -0.217419,0.213585 -0.43203,0.435005 -0.643837,0.664261 l -0.734505,-0.678604 c 0.22279,-0.241142 0.448643,-0.474152 0.677559,-0.699036 z m -1.883842,2.137322 c -0.201508,0.261825 -0.40017,0.531509 -0.595991,0.809059 L 30.88328,88.227737 c 0.203882,-0.288971 0.410751,-0.569793 0.620611,-0.842475 z m -1.722123,2.543808 c -0.153612,0.256675 -0.305284,0.518798 -0.455013,0.786377 l -0.872665,-0.488312 c 0.154526,-0.276146 0.311062,-0.546685 0.469608,-0.8116 z m -1.331089,2.459335 c -0.142265,0.290047 -0.282581,0.585579 -0.420948,0.886581 l -0.908599,-0.417663 c 0.14191,-0.308708 0.28582,-0.611809 0.431728,-0.909287 z m -1.228406,2.759987 c -0.130726,0.323341 -0.259531,0.652275 -0.386416,0.986801 l -0.935001,-0.354645 c 0.129429,-0.341225 0.260868,-0.676887 0.394319,-1.006973 z m -1.041234,2.81324 c -0.09915,0.292595 -0.196979,0.588989 -0.293483,0.889198 l -0.952019,-0.306045 c 0.09805,-0.305024 0.197519,-0.606385 0.298405,-0.904091 z m -0.8565,2.735859 c -0.09119,0.31542 -0.181021,0.63457 -0.269505,0.95746 l -0.964443,-0.26429 c 0.08967,-0.32722 0.180765,-0.65085 0.273289,-0.9709 z m -0.784422,2.94059 c -0.08318,0.33825 -0.164976,0.68013 -0.245398,1.02566 l -0.973964,-0.22668 c 0.08141,-0.34979 0.164173,-0.6957 0.248289,-1.03777 z m -0.68162,2.99971 c -0.06331,0.30197 -0.12565,0.60645 -0.18701,0.91346 l -0.980606,-0.19599 c 0.062,-0.31023 0.12497,-0.61779 0.188898,-0.92268 z m -0.543569,2.78618 -0.170676,0.96561 -0.984737,-0.17406 0.170675,-0.9656 z m -0.49275,2.93216 -0.153397,1.01312 -0.988731,-0.1497 0.153396,-1.01312 z m -0.441346,3.07571 -0.136121,1.06065 -0.991864,-0.12729 0.136122,-1.06065 z m -0.363081,2.97872 -0.103004,0.94312 -0.994087,-0.10856 0.103004,-0.94313 z m -0.295562,2.85583 -0.09038,0.97783 -0.995754,-0.092 0.09038,-0.97783 z m -0.257882,2.96048 -0.07776,1.01254 -0.997063,-0.0766 0.07776,-1.01254 0.997062,0.0766 z m -0.220174,3.06511 -0.06515,1.04725 -0.99807,-0.0621 0.06515,-1.04727 0.99807,0.0621 z m -0.180582,3.13308 -0.04603,0.93973 -0.998802,-0.0489 0.04603,-0.93973 z m -0.128321,2.83983 -0.03649,0.96596 -0.999287,-0.0377 0.03649,-0.96596 z m -0.09977,2.91884 -0.02696,0.9922 -0.99963,-0.0272 0.02696,-0.9922 z m -0.07121,2.99783 -0.01741,1.01845 -0.999855,-0.0171 0.01741,-1.01845 z m -0.04265,3.07682 -0.0079,1.0447 -0.999973,-0.008 0.0079,-1.04471 0.999973,0.008 z m -0.01408,3.15576 0.0017,1.06178 -1,0.002 -0.0017,-1.06179 1,-0.002 z m 0.0145,3.15445 0.0112,1.03553 -0.999943,0.0108 -0.0112,-1.03554 0.999942,-0.0108 z m 0.04307,3.07551 0.02074,1.0093 -0.99979,0.0205 -0.02074,-1.00929 0.99979,-0.0205 z m 0.07164,2.99652 0.03028,0.98305 -0.999527,0.0308 -0.03028,-0.98304 0.999527,-0.0308 z m 0.100191,2.91751 0.03982,0.95682 -0.999134,0.0416 -0.03982,-0.95682 z m 0.128733,2.8384 0.05539,1.03961 -0.998585,0.0532 -0.05539,-1.03961 z m 0.181446,3.13768 0.06955,1.03516 -0.99775,0.067 -0.06955,-1.03515 0.997749,-0.0671 z m 0.220715,3.06334 0.08217,1.00044 -0.996643,0.0819 -0.08217,-1.00044 z m 0.258409,2.95868 0.09479,0.96571 -0.995217,0.0977 -0.09479,-0.96572 0.995216,-0.0977 z m 0.296082,2.85402 0.107406,0.93101 -0.993412,0.1146 -0.107406,-0.93102 z m 0.364496,2.9833 0.142147,1.04409 -0.99086,0.13488 -0.142147,-1.04408 z m 0.442011,3.07317 0.159424,0.99654 -0.987446,0.15795 -0.159424,-0.99653 z m 0.493774,2.93175 c 0.05769,0.31758 0.116318,0.63246 0.175892,0.94465 l -0.982277,0.18744 c -0.06007,-0.3148 -0.119242,-0.6326 -0.177513,-0.95338 z m 0.544749,2.78608 c 0.06589,0.31357 0.132862,0.62452 0.200916,0.93283 l -0.976494,0.21555 c -0.06873,-0.31136 -0.136408,-0.62561 -0.203049,-0.94275 z m 0.684394,3.00476 c 0.08325,0.33767 0.167851,0.67162 0.253819,1.00187 l -0.967751,0.25192 c -0.08695,-0.33403 -0.172615,-0.67217 -0.256996,-1.01444 z m 0.785546,2.93741 c 0.09129,0.31499 0.183916,0.62619 0.277885,0.93364 l -0.956329,0.2923 c -0.09543,-0.31223 -0.18944,-0.62808 -0.282032,-0.94756 z m 0.857616,2.73267 c 0.09921,0.29204 0.199814,0.58049 0.301811,0.86534 l -0.941459,0.33713 c -0.10384,-0.29 -0.206244,-0.58359 -0.307209,-0.88082 z m 1.045645,2.81753 c 0.130875,0.32274 0.263714,0.64002 0.398516,0.95185 l -0.9179,0.39682 c -0.137793,-0.31874 -0.273566,-0.64304 -0.40732,-0.97287 z m 1.230019,2.75533 c 0.142416,0.28947 0.28671,0.57335 0.432884,0.85162 l -0.885292,0.46503 c -0.150328,-0.28618 -0.298624,-0.57793 -0.444886,-0.87521 z m 1.332666,2.45467 c 0.181126,0.30169 0.364946,0.59582 0.551464,0.88238 l -0.838104,0.5455 c -0.1931,-0.29667 -0.383339,-0.60106 -0.570717,-0.91317 z m 1.728802,2.54451 c 0.201339,0.26052 0.405601,0.51332 0.612781,0.75839 l -0.763664,0.64563 c -0.21649,-0.25609 -0.429947,-0.52027 -0.640369,-0.79254 z m 1.88607,2.1306 c 0.228496,0.22343 0.460236,0.43835 0.695217,0.64476 l -0.659927,0.75134 c -0.248185,-0.218 -0.492997,-0.44504 -0.734433,-0.68114 z m 2.26712,1.86473 c 0.268681,0.18252 0.541054,0.35493 0.817128,0.51722 l -0.50676,0.8621 c -0.29485,-0.17333 -0.585617,-0.35738 -0.872311,-0.55214 z m 2.51482,1.36789 c 0.292111,0.1223 0.587819,0.23431 0.887116,0.33603 l -0.321785,0.9468 c -0.321194,-0.10916 -0.638374,-0.22929 -0.951538,-0.36041 z m 2.735157,0.82508 c 0.315884,0.061 0.635601,0.11161 0.959149,0.15197 l -0.123734,0.99231 c -0.345562,-0.0431 -0.687198,-0.0972 -1.024914,-0.1624 z"
             style="fill:#000000;fill-opacity:1;fill-rule:nonzero;stroke:none"
             id="path258"
             inkscape:connector-curvature="0" /><path
             d="m 49.880001,81 -7,3.5 1.75,-3.5 -1.75,-3.5 z"
             style="fill:#000000;fill-opacity:1;fill-rule:nonzero;stroke:none"
             id="path260"
             inkscape:connector-curvature="0" /><path
             d="m 49.880001,81 -7,3.5 1.75,-3.5 -1.75,-3.5 z"
             style="fill:none;stroke:#000000;stroke-width:1;stroke-linecap:butt;stroke-linejoin:miter;stroke-miterlimit:10;stroke-dasharray:none;stroke-opacity:1"
             id="path262"
             inkscape:connector-curvature="0" /><path
             d="m 49.880001,211 -7,3.5 1.75,-3.5 -1.75,-3.5 z"
             style="fill:#000000;fill-opacity:1;fill-rule:nonzero;stroke:none"
             id="path264"
             inkscape:connector-curvature="0" /><path
             d="m 49.880001,211 -7,3.5 1.75,-3.5 -1.75,-3.5 z"
             style="fill:none;stroke:#000000;stroke-width:1;stroke-linecap:butt;stroke-linejoin:miter;stroke-miterlimit:10;stroke-dasharray:none;stroke-opacity:1"
             id="path266"
             inkscape:connector-curvature="0" /><path
             d="m 44.630001,101.5 c -0.355579,0 -0.703739,0.0132 -1.044472,0.0396 l -0.07729,-0.99701 c 0.366455,-0.0284 0.740375,-0.0426 1.121765,-0.0426 v 1 z m -2.991726,0.35467 c -0.308746,0.0784 -0.61021,0.1699 -0.904392,0.27439 l -0.334679,-0.94234 c 0.323216,-0.1148 0.65416,-0.21522 0.992825,-0.30126 z m -2.580429,1.05625 c -0.259174,0.15287 -0.511593,0.31823 -0.757259,0.49606 l -0.586373,-0.81004 c 0.270962,-0.19614 0.549492,-0.37859 0.835583,-0.54735 z m -2.148048,1.71031 c -0.219284,0.22814 -0.431904,0.46887 -0.637863,0.72218 l -0.775902,-0.63085 c 0.223404,-0.27478 0.454338,-0.53621 0.692802,-0.78431 z m -1.798401,2.40096 c -0.159901,0.2711 -0.314533,0.55225 -0.463898,0.84347 l -0.889793,-0.45637 c 0.158329,-0.3087 0.322445,-0.60707 0.492355,-0.89514 z m -1.198082,2.46108 c -0.114594,0.28564 -0.225102,0.57889 -0.331524,0.87976 l -0.942757,-0.33347 c 0.111073,-0.314 0.226464,-0.62021 0.34618,-0.91862 z m -0.922447,2.7813 c -0.09047,0.3329 -0.176838,0.67347 -0.259087,1.02173 l -0.973227,-0.22984 c 0.08483,-0.35916 0.173932,-0.71055 0.267317,-1.05416 z m -0.689763,3.12645 c -0.04987,0.28406 -0.09739,0.57231 -0.142562,0.86474 l -0.988278,-0.15266 c 0.04623,-0.29929 0.09487,-0.59429 0.145903,-0.88499 z m -0.386013,2.67354 c -0.03594,0.31034 -0.06955,0.62502 -0.100828,0.94403 l -0.995228,-0.0976 c 0.03185,-0.32487 0.06608,-0.64537 0.102694,-0.96149 l 0.993362,0.11504 z m -0.260559,2.91118 c -0.02196,0.33665 -0.04157,0.67767 -0.05886,1.02309 l -0.998752,-0.05 c 0.01753,-0.35032 0.03744,-0.69639 0.05973,-1.0382 l 0.997879,0.0651 z m -0.13447,3.14821 c -0.0079,0.36306 -0.0135,0.73039 -0.01673,1.10199 l -0.999962,-0.009 c 0.0033,-0.37607 0.0089,-0.74777 0.01692,-1.11512 l 0.999763,0.0218 z m -0.008,3.33957 c 0.0062,0.36626 0.01465,0.72813 0.02549,1.08561 l -0.999542,0.0303 c -0.01097,-0.36193 -0.01957,-0.72829 -0.0258,-1.09912 l 0.999859,-0.0168 z m 0.118588,3.17797 c 0.02019,0.33996 0.04272,0.67551 0.06758,1.0067 l -0.997193,0.0749 c -0.02526,-0.33648 -0.04814,-0.67724 -0.06863,-1.02226 l 0.998242,-0.0593 z m 0.244737,2.94101 c 0.03418,0.3136 0.07069,0.62279 0.109514,0.92759 l -0.991985,0.12637 c -0.0396,-0.31087 -0.07682,-0.62607 -0.111643,-0.94559 z m 0.370281,2.70346 c 0.05354,0.31972 0.109978,0.63416 0.169308,0.94332 l -0.982076,0.18847 c -0.06081,-0.31684 -0.118639,-0.63905 -0.173497,-0.96662 z m 0.644585,3.06968 c 0.08734,0.33856 0.178753,0.66932 0.274239,0.99228 l -0.958969,0.2835 c -0.0988,-0.33419 -0.193329,-0.67619 -0.283568,-1.02597 z m 0.895191,2.83487 c 0.111386,0.29106 0.226837,0.57449 0.346348,0.85028 l -0.917549,0.39761 c -0.125275,-0.28908 -0.246193,-0.58592 -0.362751,-0.8905 z m 1.124436,2.43537 c 0.17535,0.31556 0.357464,0.61838 0.546341,0.9085 L 34.618225,146.08 c -0.201588,-0.30963 -0.395725,-0.63241 -0.582405,-0.96837 l 0.8741,-0.48575 z m 1.754822,2.48963 c 0.213993,0.23732 0.434555,0.46202 0.661678,0.6741 l -0.682472,0.7309 c -0.248146,-0.23171 -0.488778,-0.47682 -0.72189,-0.73535 z m 2.100692,1.79396 c 0.258267,0.16505 0.523545,0.31723 0.795826,0.45651 l -0.455421,0.89029 c -0.30069,-0.15381 -0.593662,-0.32187 -0.878918,-0.50418 z m 2.526436,1.14149 c 0.303692,0.0884 0.614632,0.16373 0.932819,0.226 l -0.192054,0.98139 c -0.347622,-0.068 -0.68771,-0.15044 -1.02026,-0.24724 z m 2.938603,0.44339 c 0.132282,0.004 0.265457,0.006 0.399528,0.006 v 1 c -0.143749,0 -0.286411,-0.002 -0.427986,-0.006 l 0.02846,-0.99961 z"
             style="fill:#000000;fill-opacity:1;fill-rule:nonzero;stroke:none"
             id="path268"
             inkscape:connector-curvature="0" /><path
             d="m 49.880001,101 -7,3.5 1.75,-3.5 -1.75,-3.5 z"
             style="fill:#000000;fill-opacity:1;fill-rule:nonzero;stroke:none"
             id="path270"
             inkscape:connector-curvature="0" /><path
             d="m 49.880001,101 -7,3.5 1.75,-3.5 -1.75,-3.5 z"
             style="fill:none;stroke:#000000;stroke-width:1;stroke-linecap:butt;stroke-linejoin:miter;stroke-miterlimit:10;stroke-dasharray:none;stroke-opacity:1"
             id="path272"
             inkscape:connector-curvature="0" /><path
             d="m 49.880001,151 -7,3.5 1.75,-3.5 -1.75,-3.5 z"
             style="fill:#000000;fill-opacity:1;fill-rule:nonzero;stroke:none"
             id="path274"
             inkscape:connector-curvature="0" /><path
             d="m 49.880001,151 -7,3.5 1.75,-3.5 -1.75,-3.5 z"
             style="fill:none;stroke:#000000;stroke-width:1;stroke-linecap:butt;stroke-linejoin:miter;stroke-miterlimit:10;stroke-dasharray:none;stroke-opacity:1"
             id="path276"
             inkscape:connector-curvature="0" /><path
             d="m 351,171 v 13.63"
             style="fill:none;stroke:#000000;stroke-width:1;stroke-linecap:butt;stroke-linejoin:miter;stroke-miterlimit:10;stroke-dasharray:none;stroke-opacity:1"
             id="path278"
             inkscape:connector-curvature="0" /><path
             d="m 351,189.88 -3.5,-7 3.5,1.75 3.5,-1.75 z"
             style="fill:#000000;fill-opacity:1;fill-rule:nonzero;stroke:none"
             id="path280"
             inkscape:connector-curvature="0" /><path
             d="m 351,189.88 -3.5,-7 3.5,1.75 3.5,-1.75 z"
             style="fill:none;stroke:#000000;stroke-width:1;stroke-linecap:butt;stroke-linejoin:miter;stroke-miterlimit:10;stroke-dasharray:none;stroke-opacity:1"
             id="path282"
             inkscape:connector-curvature="0" /><path
             d="m 284.63,81.5 c -0.33929,0 -0.67474,0.01035 -1.00637,0.03107 l -0.0623,-0.998062 C 283.91364,80.511002 284.26987,80.5 284.63,80.5 Z m -2.94638,0.278954 c -0.31533,0.0619 -0.62686,0.134079 -0.93451,0.216552 L 280.4902,81.02961 c 0.32965,-0.08837 0.66324,-0.16568 1.0008,-0.231934 z M 278.952,82.61248 c -0.28983,0.122437 -0.57602,0.254982 -0.85852,0.397644 l -0.45075,-0.892639 c 0.30277,-0.152893 0.6095,-0.29496 0.92017,-0.426193 z m -2.51181,1.376434 c -0.26871,0.183709 -0.53382,0.377656 -0.79535,0.581826 l -0.61536,-0.788239 c 0.27835,-0.217285 0.56042,-0.423645 0.84625,-0.619072 z m -2.25995,1.868927 c -0.21756,0.213723 -0.43219,0.435143 -0.64386,0.664261 l -0.7345,-0.678604 c 0.22287,-0.241218 0.4487,-0.474235 0.67755,-0.699035 z m -1.88385,2.13733 c -0.20169,0.262062 -0.40036,0.531746 -0.59601,0.809051 L 270.8833,88.22773 c 0.20395,-0.289086 0.41083,-0.569916 0.62061,-0.842484 z m -1.72217,2.543815 c -0.1536,0.256653 -0.30527,0.518769 -0.45499,0.786354 l -0.87268,-0.488296 c 0.15418,-0.275543 0.31073,-0.546082 0.46964,-0.811608 z m -1.33106,2.459305 c -0.1423,0.290154 -0.28262,0.585686 -0.42096,0.886604 l -0.90856,-0.417663 c 0.14212,-0.309128 0.28601,-0.612221 0.4317,-0.909279 z m -1.22839,2.76001 c -0.13083,0.323593 -0.25964,0.652527 -0.38644,0.986809 l -0.935,-0.35466 c 0.12961,-0.341645 0.26105,-0.6773 0.39432,-1.006966 z m -1.04126,2.813255 c -0.0991,0.292389 -0.1969,0.588783 -0.29349,0.889176 L 265.728,99.154686 c 0.098,-0.304741 0.19745,-0.606102 0.29843,-0.904099 z M 266.117,101.3074 c -0.0906,0.31326 -0.18039,0.6324 -0.26947,0.95744 l -0.96447,-0.26427 c 0.0897,-0.32726 0.18078,-0.6509 0.27331,-0.97091 z m -0.78442,2.94057 c -0.0829,0.33713 -0.16467,0.67902 -0.24536,1.02567 l -0.974,-0.22669 c 0.0812,-0.34877 0.16394,-0.69469 0.24829,-1.03775 z m -0.68161,2.99973 c -0.0634,0.30257 -0.12576,0.60705 -0.18701,0.91345 l -0.98059,-0.19597 c 0.0619,-0.30979 0.12488,-0.61736 0.1889,-0.92271 z m -0.54355,2.78617 -0.17068,0.96561 -0.98474,-0.17407 0.17068,-0.96561 z m -0.49277,2.93215 -0.15338,1.01314 -0.98871,-0.14969 0.15339,-1.01314 z m -0.44134,3.07571 -0.13611,1.06066 -0.99188,-0.12728 0.13611,-1.06066 z m -0.3631,2.97874 -0.103,0.94312 -0.99408,-0.10857 0.103,-0.94312 z m -0.29556,2.8558 -0.0904,0.97784 -0.99573,-0.092 0.0904,-0.97784 z m -0.25788,2.96051 -0.0778,1.01254 -0.99707,-0.0766 0.0778,-1.01254 z m -0.22018,3.06509 -0.0652,1.04726 -0.99805,-0.0621 0.0652,-1.04724 0.99805,0.0621 z m -0.18057,3.13309 -0.046,0.93971 -0.99878,-0.0489 0.046,-0.93971 z m -0.12833,2.83984 -0.0365,0.96596 -0.99926,-0.0377 0.0365,-0.96596 0.99927,0.0377 z m -0.0998,2.91885 -0.027,0.99219 -0.99963,-0.0272 0.027,-0.99219 z m -0.0712,2.99782 -0.0174,1.01845 -0.99988,-0.0171 0.0174,-1.01845 z m -0.0426,3.0768 -0.008,1.04469 -1,-0.008 0.008,-1.0447 1,0.008 z m -0.0141,3.15576 0.002,1.06178 -1,0.002 -0.002,-1.06178 z m 0.0145,3.15445 0.0112,1.03554 -0.99994,0.0108 -0.0112,-1.03553 0.99994,-0.0108 z m 0.0431,3.0755 0.0208,1.00929 -0.99982,0.0206 -0.0208,-1.00929 z m 0.0716,2.99654 0.0303,0.98305 -0.99951,0.0308 -0.0303,-0.98305 z m 0.10019,2.91751 0.0398,0.95682 -0.99915,0.0416 -0.0398,-0.95682 0.99914,-0.0416 z m 0.12875,2.83839 0.0554,1.0396 -0.99859,0.0532 -0.0554,-1.03959 0.99859,-0.0532 z m 0.18143,3.1377 0.0695,1.03512 -0.99774,0.067 -0.0695,-1.03512 0.99774,-0.0671 z m 0.2207,3.06331 0.0822,1.00044 -0.99664,0.0819 -0.0822,-1.00044 z m 0.25843,2.95869 0.0948,0.96572 -0.99523,0.0977 -0.0948,-0.96571 0.99524,-0.0977 z m 0.29608,2.85402 0.10739,0.931 -0.99341,0.11459 -0.10739,-0.93099 z m 0.3645,2.98331 0.14215,1.0441 -0.99084,0.13488 -0.14215,-1.04409 z m 0.44199,3.07316 0.15942,0.99654 -0.98743,0.15796 -0.15942,-0.99654 z m 0.49337,2.92959 0.1767,0.94902 -0.98309,0.18304 -0.1767,-0.94902 z m 0.54517,2.78825 c 0.0659,0.31384 0.1329,0.62479 0.2009,0.93284 l -0.9765,0.21552 c -0.0688,-0.31175 -0.13648,-0.62601 -0.20304,-0.94273 z m 0.68442,3.00474 c 0.0833,0.33808 0.16797,0.67205 0.25384,1.0019 l -0.96777,0.25192 c -0.0869,-0.33379 -0.17258,-0.67192 -0.25702,-1.01444 z m 0.78549,2.9374 c 0.0915,0.31572 0.18417,0.62695 0.27792,0.93368 l -0.9563,0.2923 c -0.0955,-0.31239 -0.18951,-0.62823 -0.28207,-0.94754 z m 0.85764,2.73269 c 0.099,0.2914 0.19961,0.57984 0.30181,0.86535 l -0.94146,0.33712 c -0.10373,-0.28969 -0.20612,-0.58328 -0.30719,-0.88081 z m 1.04565,2.81754 c 0.13095,0.32295 0.26379,0.64023 0.39853,0.95184 l -0.91791,0.39682 c -0.13742,-0.31782 -0.27319,-0.64213 -0.40732,-0.9729 z m 1.23001,2.75531 c 0.14224,0.28911 0.28653,0.57298 0.43292,0.85164 l -0.88531,0.46503 c -0.1503,-0.28611 -0.29859,-0.57784 -0.44489,-0.8752 z m 1.33267,2.4547 c 0.18094,0.30137 0.36475,0.5955 0.55146,0.88237 l -0.83814,0.5455 c -0.19308,-0.29665 -0.3833,-0.60103 -0.57068,-0.91316 z m 1.72879,2.54448 c 0.20133,0.26051 0.40558,0.51332 0.6128,0.75842 l -0.76368,0.64563 c -0.21652,-0.25609 -0.42996,-0.52028 -0.64038,-0.79257 z m 1.88608,2.13061 c 0.22867,0.22359 0.46039,0.43851 0.69519,0.64476 l -0.65991,0.75134 c -0.24823,-0.21801 -0.49304,-0.44506 -0.73444,-0.68113 z m 2.26709,1.86473 c 0.26865,0.18248 0.54102,0.35489 0.81717,0.51723 l -0.50677,0.86209 c -0.29477,-0.17329 -0.58555,-0.35733 -0.87229,-0.55211 z m 2.51483,1.36789 c 0.29206,0.12228 0.58777,0.2343 0.88715,0.33603 l -0.32178,0.94681 c -0.32114,-0.10915 -0.63833,-0.22928 -0.95154,-0.36041 z m 2.7352,0.82507 c 0.31595,0.061 0.63565,0.11167 0.95911,0.152 l -0.12372,0.99231 c -0.34567,-0.0431 -0.68735,-0.0973 -1.02496,-0.16243 z"
             style="fill:#000000;fill-opacity:1;fill-rule:nonzero;stroke:none"
             id="path284"
             inkscape:connector-curvature="0" /><path
             d="m 289.88,81 -7,3.5 1.75,-3.5 -1.75,-3.5 z"
             style="fill:#000000;fill-opacity:1;fill-rule:nonzero;stroke:none"
             id="path286"
             inkscape:connector-curvature="0" /><path
             d="m 289.88,81 -7,3.5 1.75,-3.5 -1.75,-3.5 z"
             style="fill:none;stroke:#000000;stroke-width:1;stroke-linecap:butt;stroke-linejoin:miter;stroke-miterlimit:10;stroke-dasharray:none;stroke-opacity:1"
             id="path288"
             inkscape:connector-curvature="0" /><path
             d="m 289.88,211 -7,3.5 1.75,-3.5 -1.75,-3.5 z"
             style="fill:#000000;fill-opacity:1;fill-rule:nonzero;stroke:none"
             id="path290"
             inkscape:connector-curvature="0" /><path
             d="m 289.88,211 -7,3.5 1.75,-3.5 -1.75,-3.5 z"
             style="fill:none;stroke:#000000;stroke-width:1;stroke-linecap:butt;stroke-linejoin:miter;stroke-miterlimit:10;stroke-dasharray:none;stroke-opacity:1"
             id="path292"
             inkscape:connector-curvature="0" /><path
             d="m 284.63,101.5 c -0.36239,0 -0.71713,0.0109 -1.06423,0.0327 l -0.0627,-0.99803 c 0.36801,-0.0231 0.74365,-0.0347 1.12692,-0.0347 v 1 z m -3.04821,0.29278 c -0.3143,0.0647 -0.62107,0.14022 -0.92035,0.22645 l -0.27686,-0.96091 c 0.32413,-0.0934 0.65592,-0.17504 0.99542,-0.24497 z m -2.62082,0.87034 c -0.2858,0.13698 -0.56326,0.28611 -0.83243,0.4474 l -0.51404,-0.85777 c 0.29572,-0.17721 0.60047,-0.34101 0.91428,-0.4914 z m -2.35617,1.56882 c -0.23746,0.21182 -0.46668,0.43614 -0.68766,0.67298 l -0.7312,-0.68216 c 0.24186,-0.25921 0.49292,-0.50491 0.75321,-0.73708 z m -1.89594,2.21655 c -0.15933,0.24198 -0.31268,0.49281 -0.46005,0.75248 l -0.86969,-0.49359 c 0.15826,-0.27888 0.32312,-0.54849 0.49454,-0.80883 z m -1.27606,2.42439 c -0.12436,0.29738 -0.24286,0.60405 -0.35544,0.92001 l -0.94201,-0.33561 c 0.1185,-0.33259 0.24346,-0.65602 0.3749,-0.97026 z m -0.95972,2.92876 c -0.0791,0.31509 -0.15329,0.63669 -0.22247,0.96479 l -0.97845,-0.20637 c 0.072,-0.34125 0.14895,-0.67524 0.23101,-1.00199 z m -0.53949,2.73731 c -0.0457,0.30654 -0.0878,0.61852 -0.12628,0.93594 l -0.99273,-0.12034 c 0.0396,-0.32658 0.0829,-0.64761 0.12994,-0.96308 z m -0.31399,2.90713 c -0.0241,0.3395 -0.0445,0.68456 -0.0613,1.03516 l -0.99884,-0.0479 c 0.0172,-0.35847 0.0381,-0.71111 0.0626,-1.05792 l 0.9975,0.0707 z m -0.11853,3.20285 -0.001,0.35259 c 0,0.25896 0.002,0.51475 0.005,0.76734 l -0.99988,0.0136 c -0.004,-0.25858 -0.005,-0.5199 -0.005,-0.78398 l 0.001,-0.35258 1,0.003 z m 0.0778,3.26429 c 0.0196,0.34636 0.0427,0.68726 0.0695,1.02269 l -0.99683,0.0796 c -0.0274,-0.34324 -0.0511,-0.69189 -0.0711,-1.04596 l 0.99842,-0.0563 z m 0.27353,2.96892 c 0.0412,0.31329 0.086,0.62111 0.13443,0.92347 l -0.98743,0.15808 c -0.0499,-0.31144 -0.096,-0.62848 -0.13846,-0.95113 z m 0.46762,2.67094 c 0.0795,0.35561 0.16488,0.70276 0.25607,1.04148 l -0.96558,0.26004 c -0.095,-0.35283 -0.1838,-0.71391 -0.26638,-1.08328 z m 0.88727,3.00773 c 0.11697,0.30874 0.23989,0.60836 0.36877,0.89885 l -0.91406,0.40551 c -0.13645,-0.30752 -0.26639,-0.6242 -0.38983,-0.95006 z m 1.21106,2.52865 c 0.15594,0.25975 0.31811,0.51009 0.48654,0.75098 l -0.81958,0.57297 c -0.18167,-0.25983 -0.35645,-0.52958 -0.52433,-0.80924 z m 1.75247,2.26844 c 0.22705,0.22724 0.46243,0.44209 0.70614,0.64451 l -0.63891,0.76926 c -0.26749,-0.22216 -0.5257,-0.45783 -0.77463,-0.70699 z m 2.26779,1.71 c 0.26849,0.14821 0.54483,0.28485 0.82901,0.4099 l -0.40277,0.91528 c -0.31186,-0.13722 -0.61502,-0.28711 -0.90952,-0.44969 z m 2.56451,1.00581 c 0.30518,0.0782 0.61792,0.14563 0.93824,0.20232 l -0.17426,0.98471 c -0.34524,-0.0611 -0.68265,-0.13386 -1.01221,-0.21831 z m 2.95847,0.4136 c 0.21994,0.008 0.44275,0.0127 0.66839,0.0127 v 1 c -0.23858,0 -0.47421,-0.004 -0.70684,-0.0134 l 0.0385,-0.99926 z"
             style="fill:#000000;fill-opacity:1;fill-rule:nonzero;stroke:none"
             id="path294"
             inkscape:connector-curvature="0" /><path
             d="m 289.88,101 -7,3.5 1.75,-3.5 -1.75,-3.5 z"
             style="fill:#000000;fill-opacity:1;fill-rule:nonzero;stroke:none"
             id="path296"
             inkscape:connector-curvature="0" /><path
             d="m 289.88,101 -7,3.5 1.75,-3.5 -1.75,-3.5 z"
             style="fill:none;stroke:#000000;stroke-width:1;stroke-linecap:butt;stroke-linejoin:miter;stroke-miterlimit:10;stroke-dasharray:none;stroke-opacity:1"
             id="path298"
             inkscape:connector-curvature="0" /><path
             d="m 289.88,141 -7,3.5 1.75,-3.5 -1.75,-3.5 z"
             style="fill:#000000;fill-opacity:1;fill-rule:nonzero;stroke:none"
             id="path300"
             inkscape:connector-curvature="0" /><path
             d="m 289.88,141 -7,3.5 1.75,-3.5 -1.75,-3.5 z"
             style="fill:none;stroke:#000000;stroke-width:1;stroke-linecap:butt;stroke-linejoin:miter;stroke-miterlimit:10;stroke-dasharray:none;stroke-opacity:1"
             id="path302"
             inkscape:connector-curvature="0" /><path
             d="m 111,184.63 v -7.26"
             style="fill:none;stroke:#000000;stroke-width:1;stroke-linecap:butt;stroke-linejoin:miter;stroke-miterlimit:10;stroke-dasharray:none;stroke-opacity:1"
             id="path304"
             inkscape:connector-curvature="0" /><path
             d="m 111,189.88 -3.5,-7 3.5,1.75 3.5,-1.75 z"
             style="fill:#000000;fill-opacity:1;fill-rule:nonzero;stroke:none"
             id="path306"
             inkscape:connector-curvature="0" /><path
             d="m 111,189.88 -3.5,-7 3.5,1.75 3.5,-1.75 z"
             style="fill:none;stroke:#000000;stroke-width:1;stroke-linecap:butt;stroke-linejoin:miter;stroke-miterlimit:10;stroke-dasharray:none;stroke-opacity:1"
             id="path308"
             inkscape:connector-curvature="0" /><path
             d="m 111,172.12 3.5,7 -3.5,-1.75 -3.5,1.75 z"
             style="fill:#000000;fill-opacity:1;fill-rule:nonzero;stroke:none"
             id="path310"
             inkscape:connector-curvature="0" /><path
             d="m 111,172.12 3.5,7 -3.5,-1.75 -3.5,1.75 z"
             style="fill:none;stroke:#000000;stroke-width:1;stroke-linecap:butt;stroke-linejoin:miter;stroke-miterlimit:10;stroke-dasharray:none;stroke-opacity:1"
             id="path312"
             inkscape:connector-curvature="0" /><path
             d="M 284.63,151 H 177.37"
             style="fill:none;stroke:#000000;stroke-width:1;stroke-linecap:butt;stroke-linejoin:miter;stroke-miterlimit:10;stroke-dasharray:none;stroke-opacity:1"
             id="path314"
             inkscape:connector-curvature="0" /><path
             d="m 289.88,151 -7,3.5 1.75,-3.5 -1.75,-3.5 z"
             style="fill:#000000;fill-opacity:1;fill-rule:nonzero;stroke:none"
             id="path316"
             inkscape:connector-curvature="0" /><path
             d="m 289.88,151 -7,3.5 1.75,-3.5 -1.75,-3.5 z"
             style="fill:none;stroke:#000000;stroke-width:1;stroke-linecap:butt;stroke-linejoin:miter;stroke-miterlimit:10;stroke-dasharray:none;stroke-opacity:1"
             id="path318"
             inkscape:connector-curvature="0" /><path
             d="m 172.12,151 7,-3.5 -1.75,3.5 1.75,3.5 z"
             style="fill:#000000;fill-opacity:1;fill-rule:nonzero;stroke:none"
             id="path320"
             inkscape:connector-curvature="0" /><path
             d="m 172.12,151 7,-3.5 -1.75,3.5 1.75,3.5 z"
             style="fill:none;stroke:#000000;stroke-width:1;stroke-linecap:butt;stroke-linejoin:miter;stroke-miterlimit:10;stroke-dasharray:none;stroke-opacity:1"
             id="path322"
             inkscape:connector-curvature="0" /></g><g
           id="g324"
           transform="matrix(2.991591,0,0,2.991591,170.52069,921.41003)"><text
             transform="translate(0,22)"
             style="font-variant:normal;font-weight:bold;font-size:24px;font-family:Helvetica;-inkscape-font-specification:Helvetica-Bold;writing-mode:lr-tb;fill:#000000;fill-opacity:1;fill-rule:nonzero;stroke:none"
             id="text328"><tspan
               x="0 17.332031 30.679688 44.027344 57.375 64.042969 80.050781 94.710938"
               y="0"
               sodipodi:role="line"
               id="tspan326">Back End</tspan></text>
</g><g
           id="g330"
           transform="matrix(2.991591,0,0,2.991591,1241.5103,921.41003)"><text
             transform="translate(0,22)"
             style="font-variant:normal;font-weight:bold;font-size:24px;font-family:Helvetica;-inkscape-font-specification:Helvetica-Bold;writing-mode:lr-tb;fill:#000000;fill-opacity:1;fill-rule:nonzero;stroke:none"
             id="text334"><tspan
               x="0 14.660156 24 38.660156 53.320312 61.3125 67.980469 83.988281 98.648438"
               y="0"
               sodipodi:role="line"
               id="tspan332">Front End</tspan></text>
</g></g></g></g></svg>